<svg width="26" height="30" viewBox="0 0 26 30" fill="none" xmlns="http://www.w3.org/2000/svg">
<circle cx="13" cy="11.75" r="3" fill="#D4D4D4"/>
<g filter="url(#filter0_dd_4017:2038)">
<path d="M12.9995 3.49973C10.8123 3.50233 8.71536 4.37236 7.16875 5.91897C5.62213 7.46558 4.75211 9.56249 4.74951 11.7497C4.74951 18.8088 12.2495 24.1408 12.5688 24.3642C12.6951 24.4524 12.8455 24.4997 12.9995 24.4997C13.1536 24.4997 13.3039 24.4524 13.4302 24.3642C13.7495 24.1408 21.2495 18.8088 21.2495 11.7497C21.2469 9.56249 20.3769 7.46558 18.8303 5.91897C17.2837 4.37236 15.1868 3.50233 12.9995 3.49973V3.49973ZM13.0001 8.75C13.5934 8.75 14.1734 8.92595 14.6668 9.2556C15.1601 9.58524 15.5446 10.0538 15.7717 10.602C15.9988 11.1501 16.0582 11.7533 15.9424 12.3353C15.8267 12.9172 15.5409 13.4518 15.1214 13.8713C14.7018 14.2909 14.1673 14.5766 13.5853 14.6924C13.0034 14.8081 12.4002 14.7487 11.852 14.5216C11.3038 14.2946 10.8353 13.9101 10.5057 13.4167C10.176 12.9234 10.0001 12.3433 10.0001 11.75C10 11.356 10.0776 10.9659 10.2284 10.6019C10.3792 10.238 10.6001 9.90724 10.8787 9.62866C11.1573 9.35008 11.488 9.1291 11.852 8.97834C12.216 8.82758 12.6061 8.74999 13.0001 8.75V8.75Z" fill="#134E4A"/>
<path d="M4.24951 11.7491V11.7497C4.24951 15.4537 6.21279 18.6649 8.15914 20.945C10.1126 23.2334 12.1052 24.6501 12.2822 24.7739L12.2826 24.7742C12.4928 24.921 12.7431 24.9997 12.9995 24.9997C13.256 24.9997 13.5062 24.921 13.7165 24.7742L13.7168 24.7739C13.8938 24.6501 15.8865 23.2334 17.8399 20.945C19.7862 18.6649 21.7495 15.4537 21.7495 11.7497V11.7491C21.7468 9.4295 20.8241 7.20565 19.1838 5.56541C17.5436 3.92518 15.3197 3.00249 13.0001 2.99973L12.9995 3.49973L12.9989 2.99973C10.6793 3.00249 8.45543 3.92518 6.81519 5.56541C5.17496 7.20565 4.25226 9.4295 4.24951 11.7491ZM13.0001 9.25C13.4945 9.25 13.9779 9.39663 14.389 9.67133C14.8001 9.94603 15.1205 10.3365 15.3098 10.7933C15.499 11.2501 15.5485 11.7528 15.452 12.2377C15.3556 12.7227 15.1175 13.1681 14.7678 13.5178C14.4182 13.8674 13.9727 14.1055 13.4878 14.202C13.0028 14.2984 12.5002 14.2489 12.0434 14.0597C11.5865 13.8705 11.1961 13.5501 10.9214 13.1389C10.6467 12.7278 10.5001 12.2445 10.5001 11.75C10.5001 11.4217 10.5647 11.0966 10.6903 10.7933C10.816 10.49 11.0001 10.2144 11.2323 9.98221C11.4644 9.75007 11.74 9.56592 12.0433 9.44029C12.3466 9.31465 12.6717 9.25 13.0001 9.25Z" stroke="white"/>
</g>
<defs>
<filter id="filter0_dd_4017:2038" x="0.749512" y="0.499733" width="24.5" height="29" filterUnits="userSpaceOnUse" color-interpolation-filters="sRGB">
<feFlood flood-opacity="0" result="BackgroundImageFix"/>
<feColorMatrix in="SourceAlpha" type="matrix" values="0 0 0 0 0 0 0 0 0 0 0 0 0 0 0 0 0 0 127 0" result="hardAlpha"/>
<feOffset dy="1"/>
<feGaussianBlur stdDeviation="1.5"/>
<feColorMatrix type="matrix" values="0 0 0 0 0 0 0 0 0 0 0 0 0 0 0 0 0 0 0.1 0"/>
<feBlend mode="normal" in2="BackgroundImageFix" result="effect1_dropShadow_4017:2038"/>
<feColorMatrix in="SourceAlpha" type="matrix" values="0 0 0 0 0 0 0 0 0 0 0 0 0 0 0 0 0 0 127 0" result="hardAlpha"/>
<feOffset dy="1"/>
<feGaussianBlur stdDeviation="1"/>
<feColorMatrix type="matrix" values="0 0 0 0 0 0 0 0 0 0 0 0 0 0 0 0 0 0 0.06 0"/>
<feBlend mode="normal" in2="effect1_dropShadow_4017:2038" result="effect2_dropShadow_4017:2038"/>
<feBlend mode="normal" in="SourceGraphic" in2="effect2_dropShadow_4017:2038" result="shape"/>
</filter>
</defs>
</svg>
