<svg width="24" height="24" viewBox="0 0 24 24" fill="none" xmlns="http://www.w3.org/2000/svg">
<path d="M12.0547 5.53846C13.138 5.53846 14.4959 4.8061 15.3045 3.82962C16.0369 2.94469 16.5709 1.70884 16.5709 0.472982C16.5709 0.30515 16.5556 0.137317 16.5251 0C15.3198 0.0457724 13.8703 0.808646 13.0006 1.8309C12.314 2.60903 11.6885 3.82963 11.6885 5.08074C11.6885 5.26383 11.719 5.44692 11.7343 5.50795C11.8106 5.5232 11.9326 5.53846 12.0547 5.53846ZM8.2403 24C9.72028 24 10.3764 23.0083 12.2225 23.0083C14.0992 23.0083 14.5111 23.9695 16.1589 23.9695C17.7762 23.9695 18.8595 22.4743 19.8818 21.0095C21.0261 19.3312 21.499 17.6834 21.5296 17.6071C21.4228 17.5766 18.3255 16.3102 18.3255 12.7552C18.3255 9.67324 20.7667 8.28481 20.904 8.178C19.2867 5.85887 16.8303 5.79784 16.1589 5.79784C14.3433 5.79784 12.8633 6.89638 11.9326 6.89638C10.9256 6.89638 9.59822 5.85887 8.0267 5.85887C5.03624 5.85887 2 8.33058 2 12.9994C2 15.8983 3.12905 18.965 4.51748 20.9485C5.70756 22.6268 6.74507 24 8.2403 24Z" fill="white"/>
</svg>
