<?xml version="1.0" standalone="no"?>
<!DOCTYPE svg PUBLIC "-//W3C//DTD SVG 20010904//EN"
 "http://www.w3.org/TR/2001/REC-SVG-20010904/DTD/svg10.dtd">
<svg version="1.0" xmlns="http://www.w3.org/2000/svg"
 width="768.000000pt" height="574.000000pt" viewBox="0 0 768.000000 574.000000"
 preserveAspectRatio="xMidYMid meet">

<g transform="translate(0.000000,574.000000) scale(0.100000,-0.100000)"
fill="#000000" stroke="none">
<path d="M5875 5654 c-465 -69 -956 -293 -1625 -740 -288 -193 -286 -191 -166
-147 270 97 558 165 766 181 313 25 504 -42 585 -205 26 -52 30 -70 33 -173 3
-97 0 -133 -23 -235 -137 -615 -419 -1379 -705 -1907 -505 -935 -1101 -1471
-1786 -1609 -136 -27 -407 -37 -550 -20 -429 51 -903 252 -1359 578 -88 63
-88 60 3 -62 525 -696 1187 -1154 1794 -1240 447 -64 888 71 1318 403 556 429
1147 1120 1593 1864 458 763 790 1634 956 2511 25 128 26 170 6 257 -65 277
-231 456 -490 526 -59 16 -286 27 -350 18z"/>
<path d="M2300 5183 c-30 -2 -70 -5 -87 -8 l-33 -6 105 -116 c614 -678 1103
-1712 1358 -2873 25 -113 48 -222 51 -242 4 -21 10 -38 14 -38 12 0 154 187
232 305 201 306 292 581 261 793 -52 359 -355 1279 -668 2023 l-44 107 -42 6
c-307 43 -843 67 -1147 49z"/>
</g>
</svg>
