<svg width="60" height="60" viewBox="0 0 60 60" fill="none" xmlns="http://www.w3.org/2000/svg">
<g clip-path="url(#clip0_1468:2383)">
<path d="M52.9478 17.6657V25.1516L57.7019 21.6199L52.9478 17.6657Z" fill="#737373"/>
<path d="M32.8905 1.04894C31.2152 -0.339565 28.7854 -0.354657 27.1101 1.03385L25.1934 2.66383H34.8374L32.8905 1.04894Z" fill="#737373"/>
<path d="M34.5053 42.6286C33.2073 43.5945 31.6377 44.1228 30.0228 44.1077C28.4079 44.1077 26.8232 43.5945 25.5253 42.6286L1.48299 24.6837V55.4572C1.4679 57.9474 3.4752 59.9849 5.96545 60H54.0349C56.5251 59.9849 58.5324 57.9474 58.5173 55.4572V24.6837L34.5053 42.6286Z" fill="#A3A3A3"/>
<path d="M2.31299 21.6199L6.91618 25.0459V17.8015L2.31299 21.6199Z" fill="#737373"/>
<path d="M13.9346 5.68231C11.7254 5.68231 9.93457 7.47317 9.93457 9.68231V27.2947L27.2909 40.2138C28.9058 41.391 31.1244 41.391 32.7393 40.2138L49.9295 27.4003V9.68231C49.9295 7.47317 48.1387 5.68231 45.9295 5.68231H13.9346Z" fill="#0F766E"/>
<path d="M25.3656 29C25.1645 29 25 28.8445 25 28.6544V13.3456C25 13.1555 25.1645 13 25.3656 13C25.5668 13 25.7313 13.1555 25.7313 13.3456V28.6548C25.7313 28.8445 25.5668 29 25.3656 29Z" fill="white"/>
<path d="M27.2302 29H26.6862C26.4823 29 26.3154 28.8423 26.3154 28.6496V13.3504C26.3154 13.1577 26.4823 13 26.6862 13H27.2302C27.4342 13 27.601 13.1577 27.601 13.3504V28.6496C27.601 28.8423 27.4342 29 27.2302 29Z" fill="white"/>
<path d="M32.7106 18.4231C31.8306 18.4231 30.9978 18.7031 30.2545 19.0395V13.3504C30.2545 13.1577 30.0876 13 29.8837 13H28.5592C28.3553 13 28.1885 13.1577 28.1885 13.3504V28.6496C28.1885 28.8423 28.3553 29 28.5592 29H29.8837C30.0876 29 30.2545 28.8423 30.2545 28.6496V28.3394C30.9978 28.7087 31.8306 29 32.7106 29C35.8457 29 38.3877 26.5535 38.3877 23.59C38.3877 20.6266 35.8462 18.4231 32.7106 18.4231Z" fill="white"/>
</g>
<defs>
<clipPath id="clip0_1468:2383">
<rect width="60" height="60" fill="white"/>
</clipPath>
</defs>
</svg>
