<svg width="40" height="37" viewBox="0 0 40 37" fill="none" xmlns="http://www.w3.org/2000/svg">
<path d="M39.4991 13.9856C39.4981 13.8709 39.4839 13.7568 39.4567 13.6454C39.4536 13.6324 39.4496 13.6197 39.4462 13.6069C39.4347 13.5648 39.4214 13.5232 39.4063 13.482C39.4007 13.4667 39.3949 13.4516 39.3889 13.4366C39.3732 13.3982 39.3556 13.3604 39.3367 13.3229C39.3293 13.3084 39.3224 13.2937 39.3146 13.2793C39.2923 13.2387 39.2675 13.1989 39.2409 13.1598C39.235 13.1511 39.2301 13.1419 39.2241 13.1334L39.2213 13.1291C39.189 13.0842 39.1543 13.041 39.1173 12.9998C39.1092 12.9907 39.1002 12.9825 39.0919 12.9736C39.0603 12.94 39.0277 12.9078 38.9937 12.8777C38.9823 12.8676 38.9705 12.858 38.9587 12.8483C38.9241 12.8194 38.8885 12.7924 38.852 12.7671C38.845 12.7623 38.839 12.7566 38.832 12.7519L20.832 0.751923C20.5856 0.587695 20.2961 0.500061 20 0.500061C19.7039 0.500061 19.4144 0.587695 19.168 0.751923L1.16797 12.7519C1.16119 12.7564 1.15543 12.7619 1.14884 12.7665C1.11167 12.7921 1.07563 12.8195 1.04072 12.8487C1.02928 12.8582 1.01774 12.8675 1.00666 12.8774C0.972329 12.9078 0.939371 12.9402 0.907602 12.9742C0.899454 12.9828 0.890756 12.9909 0.882791 12.9997C0.845761 13.0409 0.811011 13.0841 0.778696 13.1291L0.775949 13.1334C0.769906 13.1419 0.764964 13.1511 0.759104 13.1598C0.732552 13.1989 0.707742 13.2387 0.685404 13.2793C0.677622 13.2937 0.670754 13.3084 0.663339 13.3229C0.644388 13.3604 0.62681 13.3982 0.611154 13.4366C0.605112 13.4516 0.599341 13.4667 0.593667 13.482C0.578471 13.5232 0.565196 13.5649 0.553843 13.6069C0.550363 13.6197 0.546427 13.6324 0.543314 13.6454C0.516104 13.7568 0.501879 13.8709 0.500924 13.9856C0.500823 13.9905 0.5 13.9951 0.5 14V33.5C0.50091 34.2954 0.817272 35.0579 1.37968 35.6203C1.9421 36.1827 2.70463 36.4991 3.5 36.5H36.5C37.2954 36.4991 38.0579 36.1827 38.6203 35.6203C39.1827 35.0579 39.4991 34.2954 39.5 33.5V14C39.5 13.9951 39.4992 13.9905 39.4991 13.9856ZM3.5 16.9116L14.1355 24.4943L3.5 32.0069V16.9116ZM17.2036 26H22.7964L33.4143 33.5H6.58578L17.2036 26ZM25.8645 24.4943L36.5 16.9116V32.0068L25.8645 24.4943Z" fill="#0F766E"/>
</svg>
