<svg width="18" height="16" viewBox="0 0 18 16" fill="none" xmlns="http://www.w3.org/2000/svg">
<path fill-rule="evenodd" clip-rule="evenodd" d="M0.6 2.00005C0.6 1.68179 0.726429 1.37656 0.951472 1.15152C1.17652 0.926477 1.48174 0.800049 1.8 0.800049H16.2C16.5183 0.800049 16.8235 0.926477 17.0485 1.15152C17.2736 1.37656 17.4 1.68179 17.4 2.00005C17.4 2.31831 17.2736 2.62353 17.0485 2.84858C16.8235 3.07362 16.5183 3.20005 16.2 3.20005H1.8C1.48174 3.20005 1.17652 3.07362 0.951472 2.84858C0.726429 2.62353 0.6 2.31831 0.6 2.00005ZM0.6 8.00005C0.6 7.68179 0.726429 7.37656 0.951472 7.15152C1.17652 6.92648 1.48174 6.80005 1.8 6.80005H16.2C16.5183 6.80005 16.8235 6.92648 17.0485 7.15152C17.2736 7.37656 17.4 7.68179 17.4 8.00005C17.4 8.31831 17.2736 8.62353 17.0485 8.84858C16.8235 9.07362 16.5183 9.20005 16.2 9.20005H1.8C1.48174 9.20005 1.17652 9.07362 0.951472 8.84858C0.726429 8.62353 0.6 8.31831 0.6 8.00005ZM0.6 14C0.6 13.6818 0.726429 13.3766 0.951472 13.1515C1.17652 12.9265 1.48174 12.8 1.8 12.8H16.2C16.5183 12.8 16.8235 12.9265 17.0485 13.1515C17.2736 13.3766 17.4 13.6818 17.4 14C17.4 14.3183 17.2736 14.6235 17.0485 14.8486C16.8235 15.0736 16.5183 15.2 16.2 15.2H1.8C1.48174 15.2 1.17652 15.0736 0.951472 14.8486C0.726429 14.6235 0.6 14.3183 0.6 14Z" fill="#4B5563"/>
</svg>
