<svg width="18" height="14" viewBox="0 0 18 14" fill="none" xmlns="http://www.w3.org/2000/svg">
<path d="M16.6346 12.4546H15.5437V6.1504C15.5435 5.99843 15.5117 5.84816 15.4502 5.70918C15.3888 5.5702 15.299 5.44556 15.1867 5.34321L9.73165 0.383991C9.53129 0.200508 9.26946 0.0987423 8.99778 0.0987549C8.7261 0.0987675 8.46428 0.200558 8.26394 0.384059L2.80979 5.34321C2.69745 5.44554 2.60767 5.57018 2.5462 5.70916C2.48473 5.84814 2.45291 5.99842 2.45277 6.15038V12.4546H1.36186C1.2172 12.4546 1.07846 12.512 0.976166 12.6143C0.873874 12.7166 0.816406 12.8554 0.816406 13C0.816406 13.1447 0.873874 13.2834 0.976166 13.3857C1.07846 13.488 1.2172 13.5455 1.36186 13.5455H16.6346C16.7793 13.5455 16.918 13.488 17.0203 13.3857C17.1226 13.2834 17.18 13.1447 17.18 13C17.18 12.8554 17.1226 12.7166 17.0203 12.6143C16.918 12.512 16.7793 12.4546 16.6346 12.4546H16.6346ZM10.6342 12.454H10.0887V12.4546H7.90692V12.454H7.36146V9.18128C7.36147 9.03661 7.41893 8.89788 7.52123 8.79558C7.62352 8.69329 7.76226 8.63582 7.90692 8.63582H10.0887C10.2334 8.63582 10.3721 8.69329 10.4744 8.79558C10.5767 8.89788 10.6342 9.03661 10.6342 9.18128V12.454Z" fill="#0F766E"/>
</svg>
