<svg width="14" height="16" viewBox="0 0 14 16" fill="none" xmlns="http://www.w3.org/2000/svg">
<path d="M12.4413 6.90906C12.4466 5.4703 11.8811 4.08817 10.8689 3.0657C9.85664 2.04322 8.48027 1.46387 7.04153 1.45465C7.02762 1.45458 7.01383 1.45451 6.99992 1.45451C5.55514 1.45639 4.17029 2.03212 3.14999 3.05504C2.12969 4.07796 1.55752 5.46429 1.55935 6.90906C1.55935 9.25015 1.07669 10.5718 0.671857 11.2683C0.575161 11.4339 0.523851 11.6222 0.523103 11.814C0.522354 12.0058 0.572194 12.1944 0.667595 12.3608C0.762997 12.5272 0.900587 12.6655 1.06649 12.7617C1.23239 12.858 1.42075 12.9088 1.61255 12.9091H4.27278C4.27278 13.6324 4.56011 14.3261 5.07158 14.8375C5.58304 15.349 6.27673 15.6363 7.00005 15.6363C7.72337 15.6363 8.41706 15.349 8.92852 14.8375C9.43998 14.3261 9.72732 13.6324 9.72732 12.9091H12.3875C12.5793 12.9088 12.7676 12.858 12.9335 12.7618C13.0994 12.6655 13.237 12.5273 13.3324 12.3609C13.4278 12.1945 13.4777 12.006 13.4769 11.8142C13.4762 11.6224 13.425 11.4342 13.3283 11.2686C12.9237 10.572 12.4413 9.25028 12.4413 6.90906ZM7.00005 14.5454C6.56621 14.5449 6.15028 14.3724 5.84351 14.0656C5.53674 13.7588 5.36418 13.3429 5.36369 12.9091H8.63641C8.63592 13.3429 8.46336 13.7588 8.15658 14.0656C7.84981 14.3724 7.43389 14.5449 7.00005 14.5454ZM13.6059 4.26908C13.5416 4.30078 13.4718 4.3195 13.4003 4.32418C13.3288 4.32886 13.2571 4.31939 13.1892 4.29633C13.1214 4.27327 13.0588 4.23707 13.005 4.18979C12.9511 4.14251 12.9072 4.08508 12.8755 4.02079C12.3398 2.93364 11.5136 2.016 10.4884 1.36949C10.4277 1.33132 10.3751 1.28156 10.3337 1.22304C10.2922 1.16453 10.2627 1.09842 10.2468 1.02849C10.231 0.958556 10.229 0.886181 10.2412 0.815504C10.2533 0.744827 10.2792 0.677235 10.3175 0.616595C10.3558 0.555955 10.4057 0.503459 10.4642 0.46211C10.5228 0.420761 10.589 0.391371 10.659 0.375622C10.7289 0.359872 10.8013 0.358073 10.8719 0.370327C10.9426 0.382581 11.0101 0.408647 11.0707 0.447034C12.2661 1.20092 13.2295 2.27099 13.8542 3.53872C13.8858 3.60298 13.9045 3.67284 13.9092 3.74432C13.9138 3.8158 13.9044 3.8875 13.8813 3.95532C13.8583 4.02314 13.8221 4.08576 13.7748 4.13959C13.7276 4.19343 13.6702 4.23743 13.6059 4.26908ZM0.634837 4.32534C0.542173 4.32522 0.451066 4.30151 0.370103 4.25644C0.28914 4.21136 0.220988 4.14642 0.172072 4.06772C0.123156 3.98902 0.0950866 3.89916 0.0905099 3.80661C0.0859331 3.71405 0.105 3.62186 0.145913 3.53872C0.770581 2.27099 1.73398 1.20092 2.92938 0.447034C2.98995 0.408726 3.05748 0.38273 3.1281 0.370532C3.19872 0.358335 3.27105 0.360175 3.34096 0.375947C3.41087 0.391719 3.47699 0.421115 3.53553 0.462453C3.59408 0.503791 3.6439 0.556261 3.68215 0.616865C3.72041 0.677468 3.74634 0.745017 3.75848 0.815649C3.77061 0.886282 3.76871 0.958613 3.75288 1.02851C3.73704 1.09841 3.70759 1.1645 3.6662 1.223C3.62481 1.28151 3.57229 1.33129 3.51165 1.36949C2.48651 2.016 1.66031 2.93364 1.12456 4.02079C1.07953 4.11223 1.00978 4.18923 0.923227 4.24306C0.83667 4.29689 0.736766 4.32539 0.634837 4.32534Z" fill="#0F766E"/>
</svg>
