<svg width="24" height="24" viewBox="0 0 24 24" fill="none" xmlns="http://www.w3.org/2000/svg">
<g clip-path="url(#clip0)">
<path d="M19.6363 0H10.0364C9.37369 0 8.83636 0.55971 8.83636 1.25001V18.75C8.83636 19.4403 9.37369 20 10.0364 20H19.6364C20.299 20 20.8364 19.4403 20.8364 18.75V1.25001C20.8363 0.55971 20.299 0 19.6363 0V0ZM17.2363 11.25C16.5736 11.25 16.0363 10.6903 16.0363 9.99996C16.0363 9.30959 16.5736 8.74995 17.2363 8.74995C17.8991 8.74995 18.4364 9.30959 18.4364 9.99996C18.4364 10.6903 17.8991 11.25 17.2363 11.25Z" fill="#00E3FF"/>
<path d="M0.136389 12L5.38637 16.5V13.5H7.63637L7.63637 10.5H5.38637V7.50002L0.136389 12Z" fill="#00E3FF"/>
</g>
<defs>
<clipPath id="clip0">
<rect width="24" height="24" fill="white"/>
</clipPath>
</defs>
</svg>
