<?xml version="1.0" encoding="utf-8"?>
<!-- Generator: Adobe Illustrator 24.0.0, SVG Export Plug-In . SVG Version: 6.00 Build 0)  -->
<svg version="1.1" id="Layer_1" xmlns="http://www.w3.org/2000/svg" xmlns:xlink="http://www.w3.org/1999/xlink" x="0px" y="0px"
	 viewBox="0 0 20 18" style="enable-background:new 0 0 20 18;" xml:space="preserve">
<style type="text/css">
	.st0{fill:#525252;}
</style>
<g>
	<path class="st0" d="M10,17.4c-0.3,0-0.5-0.1-0.7-0.3L1.6,9.4c-2.1-2.1-2.1-5.6,0-7.8s5.6-2.1,7.8,0L10,2.2l0.6-0.6
		c1-1,2.4-1.6,3.9-1.6s2.9,0.6,3.9,1.6c1,1,1.6,2.4,1.6,3.9s-0.6,2.9-1.6,3.9l-7.7,7.7C10.5,17.3,10.3,17.4,10,17.4z M5.5,2
		C4.6,2,3.7,2.3,3,3C1.7,4.4,1.7,6.6,3,8l7,7l7-7c0.7-0.7,1-1.5,1-2.5S17.6,3.7,17,3c-1.3-1.3-3.6-1.3-4.9,0l-1.3,1.3
		c-0.2,0.2-0.4,0.3-0.7,0.3l0,0c-0.3,0-0.5-0.1-0.7-0.3L8,3C7.3,2.3,6.4,2,5.5,2z"/>
</g>
</svg>
