<svg width="16" height="16" viewBox="0 0 16 16" fill="none" xmlns="http://www.w3.org/2000/svg">
<path fill-rule="evenodd" clip-rule="evenodd" d="M7.99985 0.967033C4.11581 0.967033 0.967163 4.11568 0.967163 7.99972C0.967163 11.8837 4.11581 15.0324 7.99985 15.0324C11.8839 15.0324 15.0325 11.8837 15.0325 7.99972C15.0325 4.11568 11.8839 0.967033 7.99985 0.967033ZM1.91716 7.99972C1.91716 4.64035 4.64048 1.91703 7.99985 1.91703C11.3592 1.91703 14.0825 4.64035 14.0825 7.99972C14.0825 11.3591 11.3592 14.0824 7.99985 14.0824C4.64048 14.0824 1.91716 11.3591 1.91716 7.99972ZM8.79987 4.8C8.79987 5.24183 8.44169 5.6 7.99987 5.6C7.55804 5.6 7.19987 5.24183 7.19987 4.8C7.19987 4.35817 7.55804 4 7.99987 4C8.44169 4 8.79987 4.35817 8.79987 4.8ZM6.43332 6.43333H6.93332H7.99999C8.27613 6.43333 8.49999 6.65719 8.49999 6.93333V10.7H9.06666H9.56666V11.7H9.06666H7.99999H6.93332H6.43332V10.7H6.93332H7.49999V7.43333H6.93332H6.43332V6.43333Z" fill="#000000"/>
</svg>
