<?xml version="1.0" encoding="utf-8"?>
<!-- Generator: Adobe Illustrator 19.0.0, SVG Export Plug-In . SVG Version: 6.00 Build 0)  -->
<svg version="1.1" id="Layer_1" xmlns="http://www.w3.org/2000/svg" xmlns:xlink="http://www.w3.org/1999/xlink" x="0px" y="0px"
	 viewBox="0 0 344 344" style="enable-background:new 0 0 344 344;" xml:space="preserve">
<style type="text/css">
	.st0{fill:none;}
	.st1{fill:#00E4FF;}
</style>
<g id="XMLID_1_">
	<g>
		<circle id="XMLID_51_" class="st0" cx="172" cy="172" r="172"/>
		<path class="st1" d="M172,6c44.3,0,86,17.3,117.4,48.6S338,127.6,338,172s-17.3,86-48.6,117.4S216.4,338,172,338
			s-86-17.3-117.4-48.6S6,216.4,6,172S23.3,86,54.6,54.6C86,23.3,127.7,6,172,6 M172,0C77,0,0,77,0,172s77,172,172,172
			s172-77,172-172S267,0,172,0L172,0z"/>
	</g>
	<g>
		<path class="st1" d="M175.2,35.7c-3.7,0-6.7,3-6.7,6.7s3,6.7,6.7,6.7s6.7-3,6.7-6.7S178.9,35.7,175.2,35.7z M175.2,44.6
			c-1.2,0-2.2-1-2.2-2.2s1-2.2,2.2-2.2s2.2,1,2.2,2.2C177.5,43.6,176.5,44.6,175.2,44.6z"/>
		<path class="st1" d="M155.2,46.8c-6.1,0-11.1,5-11.1,11.1s5,11.1,11.1,11.1c6.1,0,11.1-5,11.1-11.1S161.4,46.8,155.2,46.8z
			 M155.2,64.6c-3.7,0-6.7-3-6.7-6.7s3-6.7,6.7-6.7s6.7,3,6.7,6.7S158.9,64.6,155.2,64.6z"/>
		<path class="st1" d="M124.2,51.2c-4.9,0-8.9,4-8.9,8.9s4,8.9,8.9,8.9s8.9-4,8.9-8.9S129.1,51.2,124.2,51.2z M124.2,64.6
			c-2.5,0-4.4-2-4.4-4.4s2-4.4,4.4-4.4s4.4,2,4.4,4.4S126.6,64.6,124.2,64.6z"/>
		<path class="st1" d="M110.8,35.7c-3.7,0-6.7,3-6.7,6.7s3,6.7,6.7,6.7s6.7-3,6.7-6.7S114.5,35.7,110.8,35.7z M110.8,44.6
			c-1.2,0-2.2-1-2.2-2.2s1-2.2,2.2-2.2s2.2,1,2.2,2.2C113.1,43.6,112.1,44.6,110.8,44.6z"/>
		<path id="XMLID_40_" class="st1" d="M164.7,127l4.2-1.4l14.4,42.2l-4.2,1.4L164.7,127z"/>
		<path id="XMLID_39_" class="st1" d="M153.4,130.9l4.2-1.4l14.4,42.2l-4.2,1.4L153.4,130.9z"/>
		<path id="XMLID_38_" class="st1" d="M176.1,123.2l4.2-1.4l14.4,42.2l-4.2,1.4L176.1,123.2z"/>
		<path class="st1" d="M218.4,137.8l-10.5-30.9c-2.2-6.5-9.3-10-15.9-7.8l0,0l-6,2.1l-0.4-1.1c-2.8-8.3-11.9-12.8-20.2-10
			c-3,1-5.6,2.9-7.5,5.4c-3.9-0.3-7.7,1.3-10.2,4.2c-0.5-0.2-1-0.3-1.5-0.4c-1.6-0.3-3.3-0.2-5,0.1c-6.4-6.1-16.5-5.9-22.5,0.5
			c-2.2,2.3-3.6,5.2-4.2,8.3l-0.2,1.2l-6.3-1.1c-6.8-1.2-13.3,3.4-14.5,10.2l0,0l-5.6,32.1c-1.2,6.8,3.4,13.3,10.2,14.5l6.3,1.1
			l-0.2,1.1c-3,0.7-4.9,3.8-4.2,6.8c0.5,2.2,2.3,3.9,4.5,4.3l47.3,8.3c0.3,0.1,0.6,0.1,1,0.1c2.2,0,4.2-1.3,5.1-3.3
			c1,0.2,2,0.2,3-0.2l45.5-15.5c3-1,4.5-4.2,3.5-7.2c-0.7-2.1-2.7-3.6-4.9-3.8l-0.4-1.1l6-2C217.1,151.4,220.6,144.3,218.4,137.8z
			 M182.1,103.5l0.8,2.3l-15.3,5.2l-0.8-2.3L182.1,103.5z M145.2,105.2c0.9-0.3,1.9-0.5,2.9-0.4c0.8,0,1.6-0.4,2-1.1l0,0
			c1.7-2.9,5.1-4.4,8.4-3.7c0.9,0.2,1.8-0.2,2.3-1c1.4-2.2,3.5-3.9,6-4.8c5.2-1.8,10.9,0.4,13.7,5.1l-17.2,5.8
			c-1.2,0.4-1.8,1.7-1.4,2.8l3.3,9.7c0.5,1.6-0.4,3.2-2,3.6c-1.5,0.4-3-0.3-3.6-1.8l-1.1-3.3c-0.4-1.2-1.6-1.8-2.8-1.5
			c-1.2,0.4-1.8,1.6-1.5,2.8c0,0.1,0,0.1,0,0.1c0.5,1.5-0.4,3.2-1.9,3.7s-3.1-0.3-3.6-1.8l-2.2-6.5c-0.4-1.2-1.7-1.8-2.8-1.4
			l-4.1,1.4C139.6,109.7,141.8,106.4,145.2,105.2z M143.9,119.1l-2.3,0.8l-0.8-2.3l2.3-0.8L143.9,119.1z M132.2,99.6L132.2,99.6
			c2.6,0.4,5,1.8,6.7,3.8c0.1,0.1,0.3,0.2,0.4,0.3c-1.7,1.6-3,3.7-3.6,6l-16.2-2.9C121.4,101.7,126.7,98.7,132.2,99.6z M118.5,111.2
			l16.9,3c0.1,0.8,0.3,1.7,0.5,2.5l-17.8-3.1L118.5,111.2z M98.8,160.7c-4.4-0.8-7.3-4.9-6.6-9.3l5.6-32.1c0.8-4.4,4.9-7.3,9.3-6.6
			l0,0l6.3,1.1l-0.4,2.4l-4.6-0.8c-4-0.7-7.8,2-8.5,6l0,0l-5,28.7c-0.7,4,2,7.8,6,8.5l4.6,0.8l-0.4,2.4L98.8,160.7z M112.3,120.5
			l-6,34.5l-4.6-0.8c-1.6-0.3-2.6-1.8-2.4-3.4l0,0l5-28.7c0.3-1.6,1.8-2.6,3.4-2.4L112.3,120.5z M153.9,181.3
			c-0.1,0.7-0.7,1.1-1.4,1l0,0l-47.3-8.3c-0.7-0.1-1.1-0.7-1-1.4c0.1-0.7,0.7-1.1,1.4-1h0.1c1.2,0.2,2.4-0.6,2.6-1.8l9.1-51.9
			l20.2,3.5l15.5,45.5l-1.8,10.4c-0.1,0.6,0,1.2,0.4,1.7c0.4,0.5,0.9,0.8,1.4,0.9C153.6,180,154.1,180.6,153.9,181.3z M205.6,162
			c0.2,0.6-0.1,1.3-0.8,1.5l0,0L159.3,179c-0.6,0.2-1.3-0.1-1.5-0.8c-0.2-0.7,0.1-1.3,0.8-1.5c1.2-0.4,1.8-1.7,1.4-2.8l0,0L143,124
			l2.6-0.9c2.4,3.3,7,4,10.3,1.6c0.4-0.3,0.8-0.6,1.1-1c0.6,0.6,1.3,1.2,2.1,1.6c3.6,1.8,8.1,0.3,9.9-3.4c0.9-1.8,1-3.8,0.4-5.6
			l-0.4-1.1l15.3-5.2l17,49.9c0.4,1.2,1.6,1.8,2.8,1.4l0,0C204.7,161.1,205.4,161.4,205.6,162z M189.6,111.8l4.4-1.5
			c1.5-0.5,3.2,0.3,3.7,1.8l0,0l9.4,27.6c0.5,1.5-0.3,3.2-1.8,3.7l-4.4,1.5L189.6,111.8z M209.1,149.4l-6,2.1l-0.8-2.3l4.4-1.5
			c3.9-1.3,5.9-5.5,4.6-9.3l-9.4-27.6c-1.3-3.9-5.5-5.9-9.3-4.6l-4.4,1.5l-0.8-2.3l6-2c4.2-1.4,8.8,0.8,10.2,5l10.5,30.8
			C215.6,143.4,213.3,148,209.1,149.4z"/>
		<path id="XMLID_25_" class="st1" d="M127.2,174.9l7.7-43.9l4.4,0.8l-7.7,43.9L127.2,174.9z"/>
		<path id="XMLID_24_" class="st1" d="M139,177l4.3-26.1l4.4,0.7l-4.3,26.1L139,177z"/>
		<path id="XMLID_23_" class="st1" d="M115.4,172.8l7.7-43.9l4.4,0.8l-7.7,43.9L115.4,172.8z"/>
	</g>
	<g>
		<path id="XMLID_22_" class="st0" d="M280.5,273.5l-8.3-8.3c-2.5,3-5.3,5.8-8.3,8.3l8.3,8.3C275.2,279.2,278,276.5,280.5,273.5z"/>
		<path id="XMLID_21_" class="st0" d="M276.3,285.9l13.4,13.4l3.5-1.6l4-5v-2.5l-12.6-12.6C282.1,280.6,279.3,283.4,276.3,285.9z"/>
		<path id="XMLID_20_" class="st0" d="M273.7,228.1c0,25.8-21,46.9-46.9,46.9c-5,0-9.9-0.8-14.4-2.3c-2.7,1.1-5.5,2.1-8.3,3
			c6.9,3.3,14.6,5.2,22.7,5.2c11.2,0,21.9-3.5,30.9-10l0,0c4.5-3.3,8.5-7.2,11.8-11.8c6.6-9,10-19.7,10-30.9c0-7.7-1.7-15-4.7-21.6
			c-0.9,2.8-2,5.6-3.1,8.3C273,219,273.7,223.5,273.7,228.1z"/>
		<path id="XMLID_19_" class="st0" d="M221.2,268.7c1.8,0.3,3.7,0.4,5.6,0.4c22.6,0,41-18.4,41-41c0-1.6-0.1-3.2-0.3-4.7
			C257.1,242.8,240.9,258.7,221.2,268.7z"/>
		<path id="XMLID_18_" class="st1" d="M267.8,228.1c0,22.6-18.4,41-41,41c-1.9,0-3.8-0.1-5.6-0.4c-2.9,1.5-5.8,2.8-8.8,4
			c4.5,1.5,9.4,2.3,14.4,2.3c25.8,0,46.9-21,46.9-46.9c0-4.6-0.7-9.1-2-13.4c-1.3,3-2.7,5.9-4.2,8.7
			C267.7,225,267.8,226.5,267.8,228.1z"/>
		<path class="st1" d="M276.3,285.9c3-2.5,5.7-5.3,8.3-8.3l12.6,12.1l4-5l-25.5-24.3c6.4-9.6,9.7-20.7,9.7-32.3
			c0-10.9-3-21-8.1-29.8c-0.7,2.8-1.5,5.5-2.4,8.1c3,6.6,4.7,13.9,4.7,21.6c0,11.2-3.5,21.9-10,30.9c-3.3,4.5-7.2,8.5-11.8,11.8l0,0
			c-9,6.6-19.7,10-30.9,10c-8.1,0-15.8-1.9-22.7-5.2c-2.7,0.8-5.4,1.5-8.2,2.2c9,5.6,19.6,8.8,30.9,8.8c11.6,0,22.7-3.4,32.3-9.7
			l10.8,10.8l0,0l14.3,14l0,0l4-4L276.3,285.9z M263.9,273.5c3-2.5,5.8-5.3,8.3-8.3l8.3,8.3c-2.5,3-5.3,5.8-8.3,8.3L263.9,273.5z"/>
		<path id="XMLID_15_" class="st0" d="M168.3,228.1c0-32.3,26.3-58.6,58.6-58.6c18.5,0,35,8.6,45.8,22.1c1.2-6.4,1.9-12.9,1.9-19.6
			c0-56.6-45.9-102.5-102.5-102.5S69.5,115.4,69.5,172S115.4,274.5,172,274.5c5.9,0,11.7-0.5,17.3-1.5
			C176.5,262.3,168.3,246.2,168.3,228.1z"/>
		<path id="XMLID_14_" class="st0" d="M180,228.1c0-25.8,21-46.9,46.9-46.9c18.1,0,33.8,10.3,41.6,25.4c0.9-2.5,1.7-5,2.4-7.5
			c-9.4-14.3-25.6-23.7-44-23.7c-29.1,0-52.7,23.6-52.7,52.7c0,17.9,9,33.8,22.8,43.3c2.6-0.6,5.1-1.4,7.5-2.2
			C189.9,261.3,180,245.8,180,228.1z"/>
		<path class="st0" d="M256.7,229.8c-0.3-0.5-0.5-1-0.5-1.7c0-1.6,1.3-2.9,2.9-2.9c0.2,0,0.4,0,0.5,0c2.1-3.5,4.1-7.2,5.8-11
			c-5.7-15.8-20.8-27.1-38.6-27.1c-22.6,0-41,18.4-41,41c0,17.4,10.9,32.3,26.2,38.2C230.2,258.7,245.7,245.9,256.7,229.8z
			 M223.9,195.9c0-1.6,1.3-2.9,2.9-2.9c7.2,0,14.2,2.2,20.1,6.3c5.8,4,10.2,9.7,12.7,16.2c0.6,1.5-0.2,3.2-1.7,3.8
			c-0.4,0.1-0.7,0.2-1,0.2c-1.2,0-2.3-0.7-2.7-1.9c-4.3-11.3-15.3-18.8-27.4-18.8C225.2,198.8,223.9,197.5,223.9,195.9z"/>
		<path id="XMLID_11_" class="st1" d="M256.1,228.1c0,0.6,0.2,1.2,0.5,1.7c1-1.5,2-3,2.9-4.5c-0.2,0-0.4,0-0.5,0
			C257.4,225.2,256.1,226.5,256.1,228.1z"/>
		<path id="XMLID_10_" class="st1" d="M226.8,181.3c-25.8,0-46.9,21-46.9,46.9c0,17.7,9.9,33.2,24.4,41.1c2.6-0.9,5.1-1.8,7.6-2.9
			c-15.3-5.9-26.2-20.8-26.2-38.2c0-22.6,18.4-41,41-41c17.7,0,32.9,11.3,38.6,27.1c1.1-2.5,2.1-5,3.1-7.6
			C260.7,191.6,245,181.3,226.8,181.3z"/>
		<path id="XMLID_9_" class="st1" d="M254.2,217.7c0.5,1.2,1.6,1.9,2.7,1.9c0.4,0,0.7-0.1,1-0.2c1.5-0.6,2.3-2.3,1.7-3.8
			c-2.5-6.6-6.9-12.2-12.7-16.2c-5.9-4.1-12.9-6.3-20.1-6.3c-1.6,0-2.9,1.3-2.9,2.9s1.3,2.9,2.9,2.9
			C238.9,198.8,249.9,206.4,254.2,217.7z"/>
		<path id="XMLID_8_" class="st1" d="M174.1,228.1c0-29.1,23.6-52.7,52.7-52.7c18.4,0,34.6,9.5,44,23.7c0.7-2.5,1.3-5,1.8-7.5
			c-10.7-13.4-27.3-22.1-45.8-22.1c-32.3,0-58.6,26.3-58.6,58.6c0,18,8.2,34.2,21,44.9c2.6-0.4,5.1-1,7.6-1.6
			C183.2,261.9,174.1,246.1,174.1,228.1z"/>
		<g>
			<path id="XMLID_7_" class="st1" d="M172,274.5c-56.6,0-102.5-45.9-102.5-102.5S115.4,69.5,172,69.5S274.5,115.4,274.5,172
				c0,6.7-0.6,13.3-1.9,19.6c1.7,2.1,3.3,4.4,4.6,6.7c2.1-8.4,3.2-17.3,3.2-26.4c0-59.9-48.6-108.5-108.5-108.5S63.5,112.1,63.5,172
				S112.1,280.5,172,280.5c8.2,0,16.3-0.9,24-2.7c-2.3-1.5-4.5-3-6.6-4.8C183.7,274,177.9,274.5,172,274.5z"/>
		</g>
		<g>
			<path id="XMLID_6_" class="st1" d="M259.1,231.1c1.6,0,2.9-1.3,2.9-2.9c0-1.4-1-2.6-2.4-2.9c-0.9,1.5-1.9,3.1-2.9,4.5
				C257.2,230.6,258.1,231.1,259.1,231.1z"/>
		</g>
		<g>
			<path id="XMLID_5_" class="st1" d="M267.6,223.4c1.5-2.8,2.9-5.7,4.2-8.7c-0.8-2.8-1.9-5.5-3.3-8.1c-0.9,2.6-1.9,5.1-3.1,7.6
				C266.5,217.2,267.2,220.2,267.6,223.4z"/>
		</g>
		<g>
			<path id="XMLID_4_" class="st1" d="M212.1,266.4c-2.5,1.1-5,2-7.6,2.9c2.5,1.4,5.2,2.5,8,3.4c3-1.2,5.9-2.5,8.8-4
				C218,268.3,215,267.5,212.1,266.4z"/>
		</g>
		<g>
			<path id="XMLID_3_" class="st1" d="M196.9,271.5c-2.5,0.6-5,1.1-7.6,1.6c2.1,1.8,4.3,3.4,6.6,4.8c2.8-0.6,5.5-1.4,8.2-2.2
				C201.6,274.5,199.2,273,196.9,271.5z"/>
		</g>
		<g>
			<path id="XMLID_2_" class="st1" d="M270.8,199.2c1.5,2.3,2.9,4.8,4,7.3c0.9-2.7,1.7-5.4,2.4-8.1c-1.4-2.4-3-4.6-4.6-6.7
				C272.1,194.2,271.5,196.7,270.8,199.2z"/>
		</g>
	</g>
</g>
</svg>
