<svg width="16" height="16" viewBox="0 0 16 16" fill="none" xmlns="http://www.w3.org/2000/svg">
<path fill-rule="evenodd" clip-rule="evenodd" d="M7.99997 0.967041C4.11593 0.967041 0.967285 4.11569 0.967285 7.99973C0.967285 11.8837 4.11593 15.0324 7.99997 15.0324C11.884 15.0324 15.0327 11.8837 15.0327 7.99973C15.0327 4.11569 11.884 0.967041 7.99997 0.967041ZM1.91729 7.99973C1.91729 4.64036 4.6406 1.91704 7.99997 1.91704C11.3593 1.91704 14.0827 4.64036 14.0827 7.99973C14.0827 11.3591 11.3593 14.0824 7.99997 14.0824C4.6406 14.0824 1.91729 11.3591 1.91729 7.99973ZM8.79999 4.80001C8.79999 5.24184 8.44182 5.60001 7.99999 5.60001C7.55816 5.60001 7.19999 5.24184 7.19999 4.80001C7.19999 4.35818 7.55816 4.00001 7.99999 4.00001C8.44182 4.00001 8.79999 4.35818 8.79999 4.80001ZM6.43344 6.43334H6.93344H8.00011C8.27625 6.43334 8.50011 6.6572 8.50011 6.93334V10.7H9.06678H9.56678V11.7H9.06678H8.00011H6.93344H6.43344V10.7H6.93344H7.50011V7.43334H6.93344H6.43344V6.43334Z" fill="#0F766E"/>
</svg>
