<svg width="12" height="16" viewBox="0 0 12 16" fill="none" xmlns="http://www.w3.org/2000/svg">
<path d="M6 0.363403C4.40928 0.365291 2.88425 0.998038 1.75944 2.12285C0.634634 3.24766 0.00188742 4.77268 0 6.3634C0 11.4973 5.45455 15.3751 5.68679 15.5376C5.77864 15.6017 5.88797 15.6361 6 15.6361C6.11203 15.6361 6.22136 15.6017 6.31321 15.5376C6.54545 15.3751 12 11.4973 12 6.3634C11.9981 4.77268 11.3654 3.24766 10.2406 2.12285C9.11575 0.998038 7.59072 0.365291 6 0.363403ZM6.0004 4.18178C6.43192 4.18178 6.85375 4.30974 7.21255 4.54949C7.57135 4.78923 7.851 5.12998 8.01614 5.52866C8.18127 5.92733 8.22448 6.36602 8.1403 6.78925C8.05611 7.21248 7.84831 7.60125 7.54318 7.90638C7.23805 8.21151 6.84928 8.41931 6.42605 8.5035C6.00282 8.58768 5.56413 8.54448 5.16545 8.37934C4.76678 8.2142 4.42603 7.93455 4.18628 7.57575C3.94654 7.21696 3.81858 6.79512 3.81858 6.3636C3.81857 6.07708 3.875 5.79336 3.98465 5.52865C4.09429 5.26393 4.255 5.02341 4.4576 4.8208C4.6602 4.6182 4.90073 4.45749 5.16544 4.34785C5.43016 4.2382 5.71388 4.18177 6.0004 4.18178Z" fill="#0F766E"/>
</svg>
