<svg width="315" height="160" viewBox="0 0 355 140" fill="none" xmlns="http://www.w3.org/2000/svg">
<g filter="url(#filter0_dd_1447:1558)">
<path d="M6 2H349V138C349 144.627 343.627 150 337 150H18C11.3726 150 6 144.627 6 138V2Z" fill="#FFFFFF"/>
</g>

<path d="M51.5756 35.192C53.9276 35.192 55.2716 33.896 56.0396 32.568L54.0876 31.624C53.6396 32.504 52.6796 33.176 51.5756 33.176C49.6396 33.176 48.2316 31.688 48.2316 29.672C48.2316 27.656 49.6396 26.168 51.5756 26.168C52.6796 26.168 53.6396 26.856 54.0876 27.72L56.0396 26.76C55.2876 25.432 53.9276 24.152 51.5756 24.152C48.3756 24.152 45.8956 26.392 45.8956 29.672C45.8956 32.952 48.3756 35.192 51.5756 35.192ZM64.5919 35V27.272H62.5599V32.504C62.2079 32.952 61.5839 33.384 60.7999 33.384C59.9359 33.384 59.3759 33.032 59.3759 31.96V27.272H57.3439V32.76C57.3439 34.264 58.1439 35.192 59.8399 35.192C61.1039 35.192 62.0319 34.616 62.5599 34.024V35H64.5919ZM68.6416 35V29.896C68.9776 29.4 69.8736 29.016 70.5456 29.016C70.7696 29.016 70.9616 29.032 71.1056 29.064V27.08C70.1456 27.08 69.1856 27.64 68.6416 28.328V27.272H66.6096V35H68.6416ZM74.4072 35V29.896C74.7432 29.4 75.6392 29.016 76.3112 29.016C76.5352 29.016 76.7272 29.032 76.8712 29.064V27.08C75.9112 27.08 74.9512 27.64 74.4072 28.328V27.272H72.3752V35H74.4072ZM81.7728 35.192C82.9728 35.192 84.1888 34.824 84.9568 34.12L84.0608 32.808C83.5648 33.288 82.6528 33.576 81.9968 33.576C80.6848 33.576 79.9008 32.76 79.7728 31.784H85.5168V31.336C85.5168 28.808 83.9488 27.08 81.6448 27.08C79.2928 27.08 77.6448 28.888 77.6448 31.128C77.6448 33.608 79.4208 35.192 81.7728 35.192ZM83.5488 30.408H79.7408C79.8368 29.64 80.3808 28.696 81.6448 28.696C82.9888 28.696 83.5008 29.672 83.5488 30.408ZM94.2326 35V29.544C94.2326 28.04 93.4166 27.08 91.7206 27.08C90.4566 27.08 89.5126 27.688 89.0166 28.28V27.272H86.9846V35H89.0166V29.8C89.3526 29.336 89.9766 28.888 90.7766 28.888C91.6406 28.888 92.2006 29.256 92.2006 30.328V35H94.2326ZM98.8422 35.192C99.6902 35.192 100.234 34.968 100.538 34.696L100.106 33.16C99.9942 33.272 99.7062 33.384 99.4022 33.384C98.9542 33.384 98.6982 33.016 98.6982 32.536V29.048H100.266V27.272H98.6982V25.16H96.6502V27.272H95.3702V29.048H96.6502V33.08C96.6502 34.456 97.4182 35.192 98.8422 35.192ZM112.582 35V33H108.07V24.328H105.798V35H112.582ZM117.537 35.192C120.097 35.192 121.633 33.336 121.633 31.128C121.633 28.936 120.097 27.08 117.537 27.08C114.993 27.08 113.457 28.936 113.457 31.128C113.457 33.336 114.993 35.192 117.537 35.192ZM117.537 33.384C116.273 33.384 115.569 32.344 115.569 31.128C115.569 29.928 116.273 28.888 117.537 28.888C118.801 28.888 119.521 29.928 119.521 31.128C119.521 32.344 118.801 33.384 117.537 33.384ZM126.741 35.192C128.325 35.192 129.285 34.504 129.797 33.784L128.469 32.552C128.101 33.064 127.541 33.384 126.837 33.384C125.605 33.384 124.741 32.472 124.741 31.128C124.741 29.784 125.605 28.888 126.837 28.888C127.541 28.888 128.101 29.176 128.469 29.72L129.797 28.472C129.285 27.768 128.325 27.08 126.741 27.08C124.357 27.08 122.645 28.76 122.645 31.128C122.645 33.512 124.357 35.192 126.741 35.192ZM137.797 35V30.008C137.797 27.784 136.181 27.08 134.421 27.08C133.205 27.08 131.989 27.464 131.045 28.296L131.813 29.656C132.469 29.048 133.237 28.744 134.069 28.744C135.093 28.744 135.765 29.256 135.765 30.04V31.08C135.253 30.472 134.341 30.136 133.317 30.136C132.085 30.136 130.629 30.824 130.629 32.632C130.629 34.36 132.085 35.192 133.317 35.192C134.325 35.192 135.237 34.824 135.765 34.2V35H137.797ZM134.133 33.816C133.333 33.816 132.677 33.4 132.677 32.68C132.677 31.928 133.333 31.512 134.133 31.512C134.789 31.512 135.429 31.736 135.765 32.184V33.144C135.429 33.592 134.789 33.816 134.133 33.816ZM142.405 35.192C143.253 35.192 143.797 34.968 144.101 34.696L143.669 33.16C143.557 33.272 143.269 33.384 142.965 33.384C142.517 33.384 142.261 33.016 142.261 32.536V29.048H143.829V27.272H142.261V25.16H140.213V27.272H138.933V29.048H140.213V33.08C140.213 34.456 140.981 35.192 142.405 35.192ZM146.227 26.44C146.899 26.44 147.443 25.896 147.443 25.224C147.443 24.552 146.899 24.024 146.227 24.024C145.571 24.024 145.011 24.552 145.011 25.224C145.011 25.896 145.571 26.44 146.227 26.44ZM147.251 35V27.272H145.219V35H147.251ZM152.85 35.192C155.41 35.192 156.946 33.336 156.946 31.128C156.946 28.936 155.41 27.08 152.85 27.08C150.306 27.08 148.77 28.936 148.77 31.128C148.77 33.336 150.306 35.192 152.85 35.192ZM152.85 33.384C151.586 33.384 150.882 32.344 150.882 31.128C150.882 29.928 151.586 28.888 152.85 28.888C154.114 28.888 154.834 29.928 154.834 31.128C154.834 32.344 154.114 33.384 152.85 33.384ZM165.701 35V29.544C165.701 28.04 164.885 27.08 163.189 27.08C161.925 27.08 160.981 27.688 160.485 28.28V27.272H158.453V35H160.485V29.8C160.821 29.336 161.445 28.888 162.245 28.888C163.109 28.888 163.669 29.256 163.669 30.328V35H165.701ZM181.013 35C180.261 34.248 179.589 33.544 178.949 32.856C179.557 32.04 180.053 31.128 180.437 30.28L178.805 29.528C178.613 30.152 178.277 30.904 177.829 31.592C177.541 31.24 177.237 30.888 176.933 30.504C176.661 30.184 176.325 29.784 176.005 29.352C177.317 28.744 178.629 28.056 178.629 26.424C178.629 25 177.333 24.168 175.829 24.168C174.053 24.168 172.773 25.288 172.773 26.728C172.773 27.448 173.061 28.248 173.477 29.032C172.261 29.64 171.189 30.488 171.189 32.104C171.189 34.168 172.757 35.192 174.709 35.192C175.845 35.192 176.821 34.808 177.621 34.2C177.925 34.52 178.197 34.792 178.421 35H181.013ZM174.997 33.592C174.117 33.592 173.349 32.952 173.349 31.912C173.349 31.176 173.717 30.68 174.277 30.28C174.629 30.776 174.997 31.256 175.349 31.688C175.605 32.008 176.053 32.52 176.533 33.048C176.069 33.384 175.541 33.592 174.997 33.592ZM174.805 26.776C174.805 26.12 175.301 25.64 175.925 25.64C176.453 25.64 176.869 25.976 176.869 26.536C176.869 27.32 176.165 27.784 175.269 28.216C174.997 27.704 174.805 27.208 174.805 26.776ZM188.57 35V31.208H191.29C193.594 31.208 194.874 29.624 194.874 27.768C194.874 25.896 193.61 24.328 191.29 24.328H186.298V35H188.57ZM190.986 29.208H188.57V26.328H190.986C191.882 26.328 192.554 26.872 192.554 27.768C192.554 28.648 191.882 29.208 190.986 29.208ZM203.483 35V27.272H201.451V32.504C201.099 32.952 200.475 33.384 199.691 33.384C198.827 33.384 198.267 33.032 198.267 31.96V27.272H196.235V32.76C196.235 34.264 197.035 35.192 198.731 35.192C199.995 35.192 200.923 34.616 201.451 34.024V35H203.483ZM208.284 35.192C210.428 35.192 211.628 34.12 211.628 32.712C211.628 29.592 207.052 30.552 207.052 29.4C207.052 28.968 207.532 28.632 208.268 28.632C209.212 28.632 210.092 29.032 210.556 29.528L211.372 28.136C210.604 27.528 209.564 27.08 208.252 27.08C206.22 27.08 205.084 28.216 205.084 29.512C205.084 32.552 209.676 31.512 209.676 32.792C209.676 33.272 209.26 33.624 208.38 33.624C207.42 33.624 206.268 33.096 205.708 32.568L204.828 33.992C205.644 34.744 206.94 35.192 208.284 35.192ZM220.389 35V29.512C220.389 28.008 219.573 27.08 217.877 27.08C216.613 27.08 215.653 27.688 215.157 28.28V24.328H213.125V35H215.157V29.8C215.509 29.336 216.133 28.888 216.917 28.888C217.797 28.888 218.357 29.224 218.357 30.296V35H220.389ZM236.1 35V24.328H233.828V31.032L228.884 24.328H226.548V35H228.82V28.04L233.908 35H236.1ZM241.74 35.192C244.3 35.192 245.836 33.336 245.836 31.128C245.836 28.936 244.3 27.08 241.74 27.08C239.196 27.08 237.66 28.936 237.66 31.128C237.66 33.336 239.196 35.192 241.74 35.192ZM241.74 33.384C240.476 33.384 239.772 32.344 239.772 31.128C239.772 29.928 240.476 28.888 241.74 28.888C243.004 28.888 243.724 29.928 243.724 31.128C243.724 32.344 243.004 33.384 241.74 33.384ZM249.936 35.192C250.784 35.192 251.328 34.968 251.632 34.696L251.2 33.16C251.088 33.272 250.8 33.384 250.496 33.384C250.048 33.384 249.792 33.016 249.792 32.536V29.048H251.36V27.272H249.792V25.16H247.744V27.272H246.464V29.048H247.744V33.08C247.744 34.456 248.512 35.192 249.936 35.192ZM253.758 26.44C254.43 26.44 254.974 25.896 254.974 25.224C254.974 24.552 254.43 24.024 253.758 24.024C253.102 24.024 252.542 24.552 252.542 25.224C252.542 25.896 253.102 26.44 253.758 26.44ZM254.782 35V27.272H252.75V35H254.782ZM259.293 35V29.048H260.861V27.272H259.293V26.856C259.293 26.152 259.677 25.768 260.253 25.768C260.525 25.768 260.749 25.848 260.909 25.96L261.325 24.488C260.957 24.296 260.429 24.168 259.853 24.168C258.333 24.168 257.245 25.176 257.245 26.856V27.272H255.965V29.048H257.245V35H259.293ZM263.037 26.44C263.709 26.44 264.253 25.896 264.253 25.224C264.253 24.552 263.709 24.024 263.037 24.024C262.381 24.024 261.821 24.552 261.821 25.224C261.821 25.896 262.381 26.44 263.037 26.44ZM264.061 35V27.272H262.029V35H264.061ZM269.678 35.192C271.262 35.192 272.222 34.504 272.734 33.784L271.406 32.552C271.038 33.064 270.478 33.384 269.774 33.384C268.542 33.384 267.678 32.472 267.678 31.128C267.678 29.784 268.542 28.888 269.774 28.888C270.478 28.888 271.038 29.176 271.406 29.72L272.734 28.472C272.222 27.768 271.262 27.08 269.678 27.08C267.294 27.08 265.582 28.76 265.582 31.128C265.582 33.512 267.294 35.192 269.678 35.192ZM280.735 35V30.008C280.735 27.784 279.119 27.08 277.359 27.08C276.143 27.08 274.927 27.464 273.983 28.296L274.751 29.656C275.407 29.048 276.175 28.744 277.007 28.744C278.031 28.744 278.703 29.256 278.703 30.04V31.08C278.191 30.472 277.279 30.136 276.255 30.136C275.023 30.136 273.567 30.824 273.567 32.632C273.567 34.36 275.023 35.192 276.255 35.192C277.263 35.192 278.175 34.824 278.703 34.2V35H280.735ZM277.071 33.816C276.271 33.816 275.615 33.4 275.615 32.68C275.615 31.928 276.271 31.512 277.071 31.512C277.727 31.512 278.367 31.736 278.703 32.184V33.144C278.367 33.592 277.727 33.816 277.071 33.816ZM285.342 35.192C286.19 35.192 286.734 34.968 287.038 34.696L286.606 33.16C286.494 33.272 286.206 33.384 285.902 33.384C285.454 33.384 285.198 33.016 285.198 32.536V29.048H286.766V27.272H285.198V25.16H283.15V27.272H281.87V29.048H283.15V33.08C283.15 34.456 283.918 35.192 285.342 35.192ZM289.164 26.44C289.836 26.44 290.38 25.896 290.38 25.224C290.38 24.552 289.836 24.024 289.164 24.024C288.508 24.024 287.948 24.552 287.948 25.224C287.948 25.896 288.508 26.44 289.164 26.44ZM290.188 35V27.272H288.156V35H290.188ZM295.787 35.192C298.347 35.192 299.883 33.336 299.883 31.128C299.883 28.936 298.347 27.08 295.787 27.08C293.243 27.08 291.707 28.936 291.707 31.128C291.707 33.336 293.243 35.192 295.787 35.192ZM295.787 33.384C294.523 33.384 293.819 32.344 293.819 31.128C293.819 29.928 294.523 28.888 295.787 28.888C297.051 28.888 297.771 29.928 297.771 31.128C297.771 32.344 297.051 33.384 295.787 33.384ZM308.639 35V29.544C308.639 28.04 307.823 27.08 306.127 27.08C304.863 27.08 303.919 27.688 303.423 28.28V27.272H301.391V35H303.423V29.8C303.759 29.336 304.383 28.888 305.183 28.888C306.047 28.888 306.607 29.256 306.607 30.328V35H308.639ZM104.226 59V55.208H106.946C109.25 55.208 110.53 53.624 110.53 51.768C110.53 49.896 109.266 48.328 106.946 48.328H101.954V59H104.226ZM106.642 53.208H104.226V50.328H106.642C107.538 50.328 108.21 50.872 108.21 51.768C108.21 52.648 107.538 53.208 106.642 53.208ZM115.257 59.192C116.457 59.192 117.673 58.824 118.441 58.12L117.545 56.808C117.049 57.288 116.137 57.576 115.481 57.576C114.169 57.576 113.385 56.76 113.257 55.784H119.001V55.336C119.001 52.808 117.433 51.08 115.129 51.08C112.777 51.08 111.129 52.888 111.129 55.128C111.129 57.608 112.905 59.192 115.257 59.192ZM117.033 54.408H113.225C113.321 53.64 113.865 52.696 115.129 52.696C116.473 52.696 116.985 53.672 117.033 54.408ZM122.501 59V53.896C122.837 53.4 123.733 53.016 124.405 53.016C124.629 53.016 124.821 53.032 124.965 53.064V51.08C124.005 51.08 123.045 51.64 122.501 52.328V51.272H120.469V59H122.501ZM137.867 59V53.416C137.867 51.832 137.019 51.08 135.595 51.08C134.411 51.08 133.387 51.784 132.939 52.488C132.651 51.608 131.931 51.08 130.795 51.08C129.611 51.08 128.587 51.816 128.267 52.28V51.272H126.235V59H128.267V53.8C128.571 53.368 129.163 52.888 129.867 52.888C130.699 52.888 131.019 53.4 131.019 54.12V59H133.067V53.784C133.355 53.368 133.947 52.888 134.667 52.888C135.499 52.888 135.819 53.4 135.819 54.12V59H137.867ZM140.868 50.44C141.54 50.44 142.084 49.896 142.084 49.224C142.084 48.552 141.54 48.024 140.868 48.024C140.212 48.024 139.652 48.552 139.652 49.224C139.652 49.896 140.212 50.44 140.868 50.44ZM141.892 59V51.272H139.86V59H141.892ZM146.69 59.192C148.834 59.192 150.034 58.12 150.034 56.712C150.034 53.592 145.458 54.552 145.458 53.4C145.458 52.968 145.938 52.632 146.674 52.632C147.618 52.632 148.498 53.032 148.962 53.528L149.778 52.136C149.01 51.528 147.97 51.08 146.658 51.08C144.626 51.08 143.49 52.216 143.49 53.512C143.49 56.552 148.082 55.512 148.082 56.792C148.082 57.272 147.666 57.624 146.786 57.624C145.826 57.624 144.674 57.096 144.114 56.568L143.234 57.992C144.05 58.744 145.346 59.192 146.69 59.192ZM154.315 59.192C156.459 59.192 157.659 58.12 157.659 56.712C157.659 53.592 153.083 54.552 153.083 53.4C153.083 52.968 153.563 52.632 154.299 52.632C155.243 52.632 156.123 53.032 156.587 53.528L157.403 52.136C156.635 51.528 155.595 51.08 154.283 51.08C152.251 51.08 151.115 52.216 151.115 53.512C151.115 56.552 155.707 55.512 155.707 56.792C155.707 57.272 155.291 57.624 154.411 57.624C153.451 57.624 152.299 57.096 151.739 56.568L150.859 57.992C151.675 58.744 152.971 59.192 154.315 59.192ZM160.164 50.44C160.836 50.44 161.38 49.896 161.38 49.224C161.38 48.552 160.836 48.024 160.164 48.024C159.508 48.024 158.948 48.552 158.948 49.224C158.948 49.896 159.508 50.44 160.164 50.44ZM161.188 59V51.272H159.156V59H161.188ZM166.787 59.192C169.347 59.192 170.883 57.336 170.883 55.128C170.883 52.936 169.347 51.08 166.787 51.08C164.243 51.08 162.707 52.936 162.707 55.128C162.707 57.336 164.243 59.192 166.787 59.192ZM166.787 57.384C165.523 57.384 164.819 56.344 164.819 55.128C164.819 53.928 165.523 52.888 166.787 52.888C168.051 52.888 168.771 53.928 168.771 55.128C168.771 56.344 168.051 57.384 166.787 57.384ZM179.639 59V53.544C179.639 52.04 178.823 51.08 177.127 51.08C175.863 51.08 174.919 51.688 174.423 52.28V51.272H172.391V59H174.423V53.8C174.759 53.336 175.383 52.888 176.183 52.888C177.047 52.888 177.607 53.256 177.607 54.328V59H179.639ZM194.438 59L192.038 54.936C193.19 54.664 194.374 53.656 194.374 51.768C194.374 49.784 193.014 48.328 190.79 48.328H185.798V59H188.07V55.208H189.734L191.83 59H194.438ZM190.454 53.208H188.07V50.328H190.454C191.366 50.328 192.054 50.872 192.054 51.768C192.054 52.664 191.366 53.208 190.454 53.208ZM199.179 59.192C200.379 59.192 201.595 58.824 202.363 58.12L201.467 56.808C200.971 57.288 200.059 57.576 199.403 57.576C198.091 57.576 197.307 56.76 197.179 55.784H202.923V55.336C202.923 52.808 201.355 51.08 199.051 51.08C196.699 51.08 195.051 52.888 195.051 55.128C195.051 57.608 196.827 59.192 199.179 59.192ZM200.955 54.408H197.147C197.243 53.64 197.787 52.696 199.051 52.696C200.395 52.696 200.907 53.672 200.955 54.408ZM207.927 57.384C206.775 57.384 205.975 56.472 205.975 55.128C205.975 53.8 206.775 52.888 207.927 52.888C208.583 52.888 209.335 53.272 209.671 53.768V56.504C209.335 56.984 208.583 57.384 207.927 57.384ZM207.287 59.192C208.199 59.192 209.047 58.808 209.671 58.008V61.944H211.719V51.272H209.671V52.248C209.079 51.496 208.231 51.08 207.287 51.08C205.303 51.08 203.863 52.552 203.863 55.128C203.863 57.704 205.303 59.192 207.287 59.192ZM220.967 59V51.272H218.935V56.504C218.583 56.952 217.959 57.384 217.175 57.384C216.311 57.384 215.751 57.032 215.751 55.96V51.272H213.719V56.76C213.719 58.264 214.519 59.192 216.215 59.192C217.479 59.192 218.407 58.616 218.935 58.024V59H220.967ZM223.993 50.44C224.665 50.44 225.209 49.896 225.209 49.224C225.209 48.552 224.665 48.024 223.993 48.024C223.337 48.024 222.777 48.552 222.777 49.224C222.777 49.896 223.337 50.44 223.993 50.44ZM225.017 59V51.272H222.985V59H225.017ZM229.063 59V53.896C229.399 53.4 230.295 53.016 230.967 53.016C231.191 53.016 231.383 53.032 231.527 53.064V51.08C230.567 51.08 229.607 51.64 229.063 52.328V51.272H227.031V59H229.063ZM236.429 59.192C237.629 59.192 238.845 58.824 239.613 58.12L238.717 56.808C238.221 57.288 237.309 57.576 236.653 57.576C235.341 57.576 234.557 56.76 234.429 55.784H240.173V55.336C240.173 52.808 238.605 51.08 236.301 51.08C233.949 51.08 232.301 52.888 232.301 55.128C232.301 57.608 234.077 59.192 236.429 59.192ZM238.205 54.408H234.397C234.493 53.64 235.037 52.696 236.301 52.696C237.645 52.696 238.157 53.672 238.205 54.408ZM249.001 59V48.328H246.953V52.264C246.345 51.48 245.481 51.08 244.569 51.08C242.601 51.08 241.145 52.616 241.145 55.144C241.145 57.72 242.617 59.192 244.569 59.192C245.497 59.192 246.345 58.776 246.953 58.008V59H249.001ZM245.193 57.384C244.041 57.384 243.241 56.472 243.241 55.144C243.241 53.8 244.041 52.888 245.193 52.888C245.881 52.888 246.617 53.256 246.953 53.768V56.504C246.617 57.016 245.881 57.384 245.193 57.384ZM252.056 59.176C252.76 59.176 253.352 58.584 253.352 57.88C253.352 57.176 252.76 56.584 252.056 56.584C251.352 56.584 250.76 57.176 250.76 57.88C250.76 58.584 251.352 59.176 252.056 59.176Z" fill="#171717"/>
<path d="M74.2469 88L76.9069 78.662H75.6189L73.5609 86.446L71.4189 78.662H70.4529L68.3109 86.446L66.2389 78.662H64.9509L67.6109 88H68.8709L70.9289 80.468L72.9869 88H74.2469ZM80.6557 88.168C81.7617 88.168 82.6717 87.804 83.3437 87.132L82.8397 86.446C82.3077 86.992 81.5237 87.3 80.7537 87.3C79.2977 87.3 78.4017 86.236 78.3177 84.962H83.7917V84.696C83.7917 82.666 82.5877 81.07 80.5437 81.07C78.6117 81.07 77.2117 82.652 77.2117 84.612C77.2117 86.726 78.6537 88.168 80.6557 88.168ZM82.7557 84.192H78.3177C78.3737 83.156 79.0877 81.938 80.5297 81.938C82.0697 81.938 82.7417 83.184 82.7557 84.192ZM94.7158 88V83.254C94.7158 81.784 93.9738 81.07 92.5598 81.07C91.5518 81.07 90.6278 81.658 90.1518 82.218V81.238H89.1018V88H90.1518V83.058C90.5438 82.512 91.3278 82.008 92.1538 82.008C93.0638 82.008 93.6658 82.386 93.6658 83.576V88H94.7158ZM99.8647 88.168C100.971 88.168 101.881 87.804 102.553 87.132L102.049 86.446C101.517 86.992 100.733 87.3 99.9627 87.3C98.5067 87.3 97.6107 86.236 97.5267 84.962H103.001V84.696C103.001 82.666 101.797 81.07 99.7527 81.07C97.8207 81.07 96.4207 82.652 96.4207 84.612C96.4207 86.726 97.8627 88.168 99.8647 88.168ZM101.965 84.192H97.5267C97.5827 83.156 98.2967 81.938 99.7387 81.938C101.279 81.938 101.951 83.184 101.965 84.192ZM107.753 88.168C108.859 88.168 109.769 87.804 110.441 87.132L109.937 86.446C109.405 86.992 108.621 87.3 107.851 87.3C106.395 87.3 105.499 86.236 105.415 84.962H110.889V84.696C110.889 82.666 109.685 81.07 107.641 81.07C105.709 81.07 104.309 82.652 104.309 84.612C104.309 86.726 105.751 88.168 107.753 88.168ZM109.853 84.192H105.415C105.471 83.156 106.185 81.938 107.627 81.938C109.167 81.938 109.839 83.184 109.853 84.192ZM118.54 88V78.662H117.49V82.26C116.944 81.518 116.118 81.07 115.208 81.07C113.43 81.07 112.198 82.47 112.198 84.626C112.198 86.824 113.444 88.168 115.208 88.168C116.16 88.168 116.986 87.678 117.49 86.992V88H118.54ZM115.46 87.23C114.102 87.23 113.29 86.124 113.29 84.626C113.29 83.128 114.102 82.008 115.46 82.008C116.3 82.008 117.112 82.512 117.49 83.1V86.166C117.112 86.754 116.3 87.23 115.46 87.23ZM125.96 88.168C126.576 88.168 126.954 87.986 127.22 87.734L126.912 86.95C126.772 87.104 126.492 87.23 126.198 87.23C125.736 87.23 125.512 86.866 125.512 86.362V82.162H126.884V81.238H125.512V79.39H124.462V81.238H123.342V82.162H124.462V86.586C124.462 87.594 124.966 88.168 125.96 88.168ZM131.321 88.168C133.379 88.168 134.667 86.572 134.667 84.612C134.667 82.652 133.379 81.07 131.321 81.07C129.263 81.07 127.975 82.652 127.975 84.612C127.975 86.572 129.263 88.168 131.321 88.168ZM131.321 87.23C129.879 87.23 129.067 85.998 129.067 84.612C129.067 83.24 129.879 82.008 131.321 82.008C132.763 82.008 133.561 83.24 133.561 84.612C133.561 85.998 132.763 87.23 131.321 87.23ZM142.13 88.168C143.88 88.168 144.79 87.258 144.79 86.124C144.79 83.492 140.604 84.472 140.604 82.988C140.604 82.386 141.178 81.924 142.102 81.924C142.97 81.924 143.712 82.288 144.118 82.778L144.608 82.05C144.062 81.504 143.25 81.07 142.102 81.07C140.492 81.07 139.582 81.966 139.582 83.016C139.582 85.522 143.768 84.514 143.768 86.152C143.768 86.824 143.208 87.314 142.172 87.314C141.248 87.314 140.394 86.866 139.946 86.348L139.4 87.104C140.086 87.832 141.024 88.168 142.13 88.168ZM152.124 88V83.226C152.124 81.756 151.382 81.07 149.968 81.07C148.946 81.07 148.022 81.658 147.546 82.218V78.662H146.496V88H147.546V83.058C147.952 82.512 148.736 82.008 149.548 82.008C150.458 82.008 151.074 82.358 151.074 83.548V88H152.124ZM157.175 88.168C159.233 88.168 160.521 86.572 160.521 84.612C160.521 82.652 159.233 81.07 157.175 81.07C155.117 81.07 153.829 82.652 153.829 84.612C153.829 86.572 155.117 88.168 157.175 88.168ZM157.175 87.23C155.733 87.23 154.921 85.998 154.921 84.612C154.921 83.24 155.733 82.008 157.175 82.008C158.617 82.008 159.415 83.24 159.415 84.612C159.415 85.998 158.617 87.23 157.175 87.23ZM169.135 88L171.291 81.238H170.199L168.547 86.628L166.769 81.238H165.873L164.095 86.628L162.443 81.238H161.351L163.507 88H164.557L166.321 82.568L168.085 88H169.135ZM175.745 90.646C175.941 90.702 176.291 90.744 176.515 90.744C177.411 90.73 178.097 90.352 178.503 89.372L181.891 81.238H180.743L178.503 86.782L176.249 81.238H175.115L177.943 88.07L177.495 89.092C177.257 89.652 176.949 89.806 176.487 89.806C176.319 89.806 176.067 89.764 175.913 89.694L175.745 90.646ZM185.941 88.168C187.999 88.168 189.287 86.572 189.287 84.612C189.287 82.652 187.999 81.07 185.941 81.07C183.883 81.07 182.595 82.652 182.595 84.612C182.595 86.572 183.883 88.168 185.941 88.168ZM185.941 87.23C184.499 87.23 183.687 85.998 183.687 84.612C183.687 83.24 184.499 82.008 185.941 82.008C187.383 82.008 188.181 83.24 188.181 84.612C188.181 85.998 187.383 87.23 185.941 87.23ZM196.612 88V81.238H195.562V86.208C195.17 86.754 194.386 87.23 193.56 87.23C192.65 87.23 192.048 86.88 192.048 85.69V81.238H190.998V86.012C190.998 87.482 191.74 88.168 193.154 88.168C194.162 88.168 195.044 87.636 195.562 87.048V88H196.612ZM205.035 90.744C206.687 90.744 208.255 90.044 208.255 87.804V81.238H207.205V82.26C206.659 81.518 205.847 81.07 204.937 81.07C203.159 81.07 201.927 82.414 201.927 84.584C201.927 86.768 203.173 88.084 204.937 88.084C205.889 88.084 206.715 87.566 207.205 86.88V87.846C207.205 89.33 206.155 89.876 205.035 89.876C204.069 89.876 203.397 89.624 202.837 88.952L202.305 89.736C203.103 90.52 203.887 90.744 205.035 90.744ZM205.189 87.16C203.831 87.16 203.019 86.068 203.019 84.584C203.019 83.086 203.831 82.008 205.189 82.008C206.029 82.008 206.841 82.512 207.205 83.1V86.054C206.841 86.642 206.029 87.16 205.189 87.16ZM211.408 88V83.212C211.716 82.666 212.598 82.134 213.242 82.134C213.41 82.134 213.536 82.148 213.662 82.176V81.098C212.738 81.098 211.954 81.616 211.408 82.33V81.238H210.358V88H211.408ZM218.031 88.168C219.137 88.168 220.047 87.804 220.719 87.132L220.215 86.446C219.683 86.992 218.899 87.3 218.129 87.3C216.673 87.3 215.777 86.236 215.693 84.962H221.167V84.696C221.167 82.666 219.963 81.07 217.919 81.07C215.987 81.07 214.587 82.652 214.587 84.612C214.587 86.726 216.029 88.168 218.031 88.168ZM220.131 84.192H215.693C215.749 83.156 216.463 81.938 217.905 81.938C219.445 81.938 220.117 83.184 220.131 84.192ZM228.145 88V83.352C228.145 81.714 226.955 81.07 225.527 81.07C224.421 81.07 223.553 81.434 222.825 82.19L223.315 82.918C223.917 82.274 224.575 81.98 225.387 81.98C226.367 81.98 227.095 82.498 227.095 83.408V84.626C226.549 83.996 225.779 83.702 224.855 83.702C223.707 83.702 222.489 84.416 222.489 85.928C222.489 87.398 223.707 88.168 224.855 88.168C225.765 88.168 226.535 87.846 227.095 87.23V88H228.145ZM225.233 87.412C224.253 87.412 223.567 86.796 223.567 85.942C223.567 85.074 224.253 84.458 225.233 84.458C225.975 84.458 226.689 84.738 227.095 85.298V86.572C226.689 87.132 225.975 87.412 225.233 87.412ZM231.958 88.168C232.574 88.168 232.952 87.986 233.218 87.734L232.91 86.95C232.77 87.104 232.49 87.23 232.196 87.23C231.734 87.23 231.51 86.866 231.51 86.362V82.162H232.882V81.238H231.51V79.39H230.46V81.238H229.34V82.162H230.46V86.586C230.46 87.594 230.964 88.168 231.958 88.168ZM239.025 86.166V83.1C239.389 82.512 240.215 82.008 241.041 82.008C242.413 82.008 243.225 83.128 243.225 84.626C243.225 86.124 242.413 87.23 241.041 87.23C240.215 87.23 239.389 86.754 239.025 86.166ZM239.025 88V86.992C239.529 87.678 240.355 88.168 241.307 88.168C243.071 88.168 244.317 86.824 244.317 84.626C244.317 82.47 243.071 81.07 241.307 81.07C240.383 81.07 239.571 81.518 239.025 82.26V78.662H237.975V88H239.025ZM251.306 88V83.352C251.306 81.714 250.116 81.07 248.688 81.07C247.582 81.07 246.714 81.434 245.986 82.19L246.476 82.918C247.078 82.274 247.736 81.98 248.548 81.98C249.528 81.98 250.256 82.498 250.256 83.408V84.626C249.71 83.996 248.94 83.702 248.016 83.702C246.868 83.702 245.65 84.416 245.65 85.928C245.65 87.398 246.868 88.168 248.016 88.168C248.926 88.168 249.696 87.846 250.256 87.23V88H251.306ZM248.394 87.412C247.414 87.412 246.728 86.796 246.728 85.942C246.728 85.074 247.414 84.458 248.394 84.458C249.136 84.458 249.85 84.738 250.256 85.298V86.572C249.85 87.132 249.136 87.412 248.394 87.412ZM254.46 88V83.212C254.768 82.666 255.65 82.134 256.294 82.134C256.462 82.134 256.588 82.148 256.714 82.176V81.098C255.79 81.098 255.006 81.616 254.46 82.33V81.238H253.41V88H254.46ZM260.173 88.168C261.923 88.168 262.833 87.258 262.833 86.124C262.833 83.492 258.647 84.472 258.647 82.988C258.647 82.386 259.221 81.924 260.145 81.924C261.013 81.924 261.755 82.288 262.161 82.778L262.651 82.05C262.105 81.504 261.293 81.07 260.145 81.07C258.535 81.07 257.625 81.966 257.625 83.016C257.625 85.522 261.811 84.514 261.811 86.152C261.811 86.824 261.251 87.314 260.215 87.314C259.291 87.314 258.437 86.866 257.989 86.348L257.443 87.104C258.129 87.832 259.067 88.168 260.173 88.168ZM273.427 88V83.352C273.427 81.714 272.237 81.07 270.809 81.07C269.703 81.07 268.835 81.434 268.107 82.19L268.597 82.918C269.199 82.274 269.857 81.98 270.669 81.98C271.649 81.98 272.377 82.498 272.377 83.408V84.626C271.831 83.996 271.061 83.702 270.137 83.702C268.989 83.702 267.771 84.416 267.771 85.928C267.771 87.398 268.989 88.168 270.137 88.168C271.047 88.168 271.817 87.846 272.377 87.23V88H273.427ZM270.515 87.412C269.535 87.412 268.849 86.796 268.849 85.942C268.849 85.074 269.535 84.458 270.515 84.458C271.257 84.458 271.971 84.738 272.377 85.298V86.572C271.971 87.132 271.257 87.412 270.515 87.412ZM281.145 88V83.254C281.145 81.784 280.403 81.07 278.989 81.07C277.981 81.07 277.057 81.658 276.581 82.218V81.238H275.531V88H276.581V83.058C276.973 82.512 277.757 82.008 278.583 82.008C279.493 82.008 280.095 82.386 280.095 83.576V88H281.145ZM289.192 88V78.662H288.142V82.26C287.596 81.518 286.77 81.07 285.86 81.07C284.082 81.07 282.85 82.47 282.85 84.626C282.85 86.824 284.096 88.168 285.86 88.168C286.812 88.168 287.638 87.678 288.142 86.992V88H289.192ZM286.112 87.23C284.754 87.23 283.942 86.124 283.942 84.626C283.942 83.128 284.754 82.008 286.112 82.008C286.952 82.008 287.764 82.512 288.142 83.1V86.166C287.764 86.754 286.952 87.23 286.112 87.23ZM46.1898 108V103.212C46.4978 102.666 47.3798 102.134 48.0238 102.134C48.1918 102.134 48.3178 102.148 48.4438 102.176V101.098C47.5198 101.098 46.7358 101.616 46.1898 102.33V101.238H45.1398V108H46.1898ZM52.8129 108.168C53.9189 108.168 54.8289 107.804 55.5009 107.132L54.9969 106.446C54.4649 106.992 53.6809 107.3 52.9109 107.3C51.4549 107.3 50.5589 106.236 50.4749 104.962H55.9489V104.696C55.9489 102.666 54.7449 101.07 52.7009 101.07C50.7689 101.07 49.3689 102.652 49.3689 104.612C49.3689 106.726 50.8109 108.168 52.8129 108.168ZM54.9129 104.192H50.4749C50.5309 103.156 51.2449 101.938 52.6869 101.938C54.2269 101.938 54.8989 103.184 54.9129 104.192ZM59.7916 108.168C61.5416 108.168 62.4516 107.258 62.4516 106.124C62.4516 103.492 58.2656 104.472 58.2656 102.988C58.2656 102.386 58.8396 101.924 59.7636 101.924C60.6316 101.924 61.3736 102.288 61.7796 102.778L62.2696 102.05C61.7236 101.504 60.9116 101.07 59.7636 101.07C58.1536 101.07 57.2436 101.966 57.2436 103.016C57.2436 105.522 61.4296 104.514 61.4296 106.152C61.4296 106.824 60.8696 107.314 59.8336 107.314C58.9096 107.314 58.0556 106.866 57.6076 106.348L57.0616 107.104C57.7476 107.832 58.6856 108.168 59.7916 108.168ZM65.8654 108.168C66.4814 108.168 66.8594 107.986 67.1254 107.734L66.8174 106.95C66.6774 107.104 66.3974 107.23 66.1034 107.23C65.6414 107.23 65.4174 106.866 65.4174 106.362V102.162H66.7894V101.238H65.4174V99.39H64.3674V101.238H63.2474V102.162H64.3674V106.586C64.3674 107.594 64.8714 108.168 65.8654 108.168ZM73.5507 108V103.352C73.5507 101.714 72.3607 101.07 70.9327 101.07C69.8267 101.07 68.9587 101.434 68.2307 102.19L68.7207 102.918C69.3227 102.274 69.9807 101.98 70.7927 101.98C71.7727 101.98 72.5007 102.498 72.5007 103.408V104.626C71.9547 103.996 71.1847 103.702 70.2607 103.702C69.1127 103.702 67.8947 104.416 67.8947 105.928C67.8947 107.398 69.1127 108.168 70.2607 108.168C71.1707 108.168 71.9407 107.846 72.5007 107.23V108H73.5507ZM70.6387 107.412C69.6587 107.412 68.9727 106.796 68.9727 105.942C68.9727 105.074 69.6587 104.458 70.6387 104.458C71.3807 104.458 72.0947 104.738 72.5007 105.298V106.572C72.0947 107.132 71.3807 107.412 70.6387 107.412ZM81.2695 108V101.238H80.2195V106.208C79.8275 106.754 79.0435 107.23 78.2175 107.23C77.3075 107.23 76.7055 106.88 76.7055 105.69V101.238H75.6555V106.012C75.6555 107.482 76.3975 108.168 77.8115 108.168C78.8195 108.168 79.7015 107.636 80.2195 107.048V108H81.2695ZM84.4164 108V103.212C84.7244 102.666 85.6064 102.134 86.2504 102.134C86.4184 102.134 86.5444 102.148 86.6704 102.176V101.098C85.7464 101.098 84.9624 101.616 84.4164 102.33V101.238H83.3664V108H84.4164ZM93.2655 108V103.352C93.2655 101.714 92.0755 101.07 90.6475 101.07C89.5415 101.07 88.6735 101.434 87.9455 102.19L88.4355 102.918C89.0375 102.274 89.6955 101.98 90.5075 101.98C91.4875 101.98 92.2155 102.498 92.2155 103.408V104.626C91.6695 103.996 90.8995 103.702 89.9755 103.702C88.8275 103.702 87.6095 104.416 87.6095 105.928C87.6095 107.398 88.8275 108.168 89.9755 108.168C90.8855 108.168 91.6555 107.846 92.2155 107.23V108H93.2655ZM90.3535 107.412C89.3735 107.412 88.6875 106.796 88.6875 105.942C88.6875 105.074 89.3735 104.458 90.3535 104.458C91.0955 104.458 91.8095 104.738 92.2155 105.298V106.572C91.8095 107.132 91.0955 107.412 90.3535 107.412ZM100.984 108V103.254C100.984 101.784 100.242 101.07 98.8283 101.07C97.8203 101.07 96.8963 101.658 96.4203 102.218V101.238H95.3703V108H96.4203V103.058C96.8123 102.512 97.5963 102.008 98.4223 102.008C99.3323 102.008 99.9343 102.386 99.9343 103.576V108H100.984ZM104.789 108.168C105.405 108.168 105.783 107.986 106.049 107.734L105.741 106.95C105.601 107.104 105.321 107.23 105.027 107.23C104.565 107.23 104.341 106.866 104.341 106.362V102.162H105.713V101.238H104.341V99.39H103.291V101.238H102.171V102.162H103.291V106.586C103.291 107.594 103.795 108.168 104.789 108.168ZM109.338 108.168C111.088 108.168 111.998 107.258 111.998 106.124C111.998 103.492 107.812 104.472 107.812 102.988C107.812 102.386 108.386 101.924 109.31 101.924C110.178 101.924 110.92 102.288 111.326 102.778L111.816 102.05C111.27 101.504 110.458 101.07 109.31 101.07C107.7 101.07 106.79 101.966 106.79 103.016C106.79 105.522 110.976 104.514 110.976 106.152C110.976 106.824 110.416 107.314 109.38 107.314C108.456 107.314 107.602 106.866 107.154 106.348L106.608 107.104C107.294 107.832 108.232 108.168 109.338 108.168ZM120.296 108.168C121.528 108.168 122.256 107.664 122.774 106.992L122.074 106.348C121.626 106.95 121.052 107.23 120.352 107.23C118.91 107.23 118.014 106.11 118.014 104.612C118.014 103.114 118.91 102.008 120.352 102.008C121.052 102.008 121.626 102.274 122.074 102.89L122.774 102.246C122.256 101.574 121.528 101.07 120.296 101.07C118.28 101.07 116.922 102.61 116.922 104.612C116.922 106.628 118.28 108.168 120.296 108.168ZM125.295 108V98.662H124.245V108H125.295ZM130.344 108.168C132.402 108.168 133.69 106.572 133.69 104.612C133.69 102.652 132.402 101.07 130.344 101.07C128.286 101.07 126.998 102.652 126.998 104.612C126.998 106.572 128.286 108.168 130.344 108.168ZM130.344 107.23C128.902 107.23 128.09 105.998 128.09 104.612C128.09 103.24 128.902 102.008 130.344 102.008C131.786 102.008 132.584 103.24 132.584 104.612C132.584 105.998 131.786 107.23 130.344 107.23ZM137.544 108.168C139.294 108.168 140.204 107.258 140.204 106.124C140.204 103.492 136.018 104.472 136.018 102.988C136.018 102.386 136.592 101.924 137.516 101.924C138.384 101.924 139.126 102.288 139.532 102.778L140.022 102.05C139.476 101.504 138.664 101.07 137.516 101.07C135.906 101.07 134.996 101.966 134.996 103.016C134.996 105.522 139.182 104.514 139.182 106.152C139.182 106.824 138.622 107.314 137.586 107.314C136.662 107.314 135.808 106.866 135.36 106.348L134.814 107.104C135.5 107.832 136.438 108.168 137.544 108.168ZM144.961 108.168C146.067 108.168 146.977 107.804 147.649 107.132L147.145 106.446C146.613 106.992 145.829 107.3 145.059 107.3C143.603 107.3 142.707 106.236 142.623 104.962H148.097V104.696C148.097 102.666 146.893 101.07 144.849 101.07C142.917 101.07 141.517 102.652 141.517 104.612C141.517 106.726 142.959 108.168 144.961 108.168ZM147.061 104.192H142.623C142.679 103.156 143.393 101.938 144.835 101.938C146.375 101.938 147.047 103.184 147.061 104.192ZM151.94 108.168C153.69 108.168 154.6 107.258 154.6 106.124C154.6 103.492 150.414 104.472 150.414 102.988C150.414 102.386 150.988 101.924 151.912 101.924C152.78 101.924 153.522 102.288 153.928 102.778L154.418 102.05C153.872 101.504 153.06 101.07 151.912 101.07C150.302 101.07 149.392 101.966 149.392 103.016C149.392 105.522 153.578 104.514 153.578 106.152C153.578 106.824 153.018 107.314 151.982 107.314C151.058 107.314 150.204 106.866 149.756 106.348L149.21 107.104C149.896 107.832 150.834 108.168 151.94 108.168ZM158.014 108.168C158.63 108.168 159.008 107.986 159.274 107.734L158.966 106.95C158.826 107.104 158.546 107.23 158.252 107.23C157.79 107.23 157.566 106.866 157.566 106.362V102.162H158.938V101.238H157.566V99.39H156.516V101.238H155.396V102.162H156.516V106.586C156.516 107.594 157.02 108.168 158.014 108.168ZM165.738 108.168C166.354 108.168 166.732 107.986 166.998 107.734L166.69 106.95C166.55 107.104 166.27 107.23 165.976 107.23C165.514 107.23 165.29 106.866 165.29 106.362V102.162H166.662V101.238H165.29V99.39H164.24V101.238H163.12V102.162H164.24V106.586C164.24 107.594 164.744 108.168 165.738 108.168ZM171.1 108.168C173.158 108.168 174.446 106.572 174.446 104.612C174.446 102.652 173.158 101.07 171.1 101.07C169.042 101.07 167.754 102.652 167.754 104.612C167.754 106.572 169.042 108.168 171.1 108.168ZM171.1 107.23C169.658 107.23 168.846 105.998 168.846 104.612C168.846 103.24 169.658 102.008 171.1 102.008C172.542 102.008 173.34 103.24 173.34 104.612C173.34 105.998 172.542 107.23 171.1 107.23ZM179.389 110.646C179.585 110.702 179.935 110.744 180.159 110.744C181.055 110.73 181.741 110.352 182.147 109.372L185.535 101.238H184.387L182.147 106.782L179.893 101.238H178.759L181.587 108.07L181.139 109.092C180.901 109.652 180.593 109.806 180.131 109.806C179.963 109.806 179.711 109.764 179.557 109.694L179.389 110.646ZM189.584 108.168C191.642 108.168 192.93 106.572 192.93 104.612C192.93 102.652 191.642 101.07 189.584 101.07C187.526 101.07 186.238 102.652 186.238 104.612C186.238 106.572 187.526 108.168 189.584 108.168ZM189.584 107.23C188.142 107.23 187.33 105.998 187.33 104.612C187.33 103.24 188.142 102.008 189.584 102.008C191.026 102.008 191.824 103.24 191.824 104.612C191.824 105.998 191.026 107.23 189.584 107.23ZM200.256 108V101.238H199.206V106.208C198.814 106.754 198.03 107.23 197.204 107.23C196.294 107.23 195.692 106.88 195.692 105.69V101.238H194.642V106.012C194.642 107.482 195.384 108.168 196.798 108.168C197.806 108.168 198.688 107.636 199.206 107.048V108H200.256ZM202.913 108.14C203.333 108.14 203.683 107.79 203.683 107.37C203.683 106.95 203.333 106.6 202.913 106.6C202.493 106.6 202.143 106.95 202.143 107.37C202.143 107.79 202.493 108.14 202.913 108.14ZM217.631 108L220.291 98.662H219.003L216.945 106.446L214.803 98.662H213.837L211.695 106.446L209.623 98.662H208.335L210.995 108H212.255L214.313 100.468L216.371 108H217.631ZM224.04 108.168C225.146 108.168 226.056 107.804 226.728 107.132L226.224 106.446C225.692 106.992 224.908 107.3 224.138 107.3C222.682 107.3 221.785 106.236 221.702 104.962H227.176V104.696C227.176 102.666 225.972 101.07 223.928 101.07C221.995 101.07 220.596 102.652 220.596 104.612C220.596 106.726 222.038 108.168 224.04 108.168ZM226.14 104.192H221.702C221.758 103.156 222.472 101.938 223.914 101.938C225.454 101.938 226.126 103.184 226.14 104.192ZM230.249 99.586C230.249 98.9 229.829 98.522 229.367 98.522C228.947 98.522 228.625 98.872 228.625 99.278C228.625 99.698 228.905 99.992 229.297 99.992C229.367 99.992 229.465 99.978 229.493 99.964C229.437 100.412 229.031 100.972 228.583 101.266L229.101 101.7C229.745 101.238 230.249 100.44 230.249 99.586ZM233.112 108V98.662H232.062V108H233.112ZM236.256 108V98.662H235.206V108H236.256ZM247.238 108V103.352C247.238 101.714 246.048 101.07 244.62 101.07C243.514 101.07 242.646 101.434 241.918 102.19L242.408 102.918C243.01 102.274 243.668 101.98 244.48 101.98C245.46 101.98 246.188 102.498 246.188 103.408V104.626C245.642 103.996 244.872 103.702 243.948 103.702C242.8 103.702 241.582 104.416 241.582 105.928C241.582 107.398 242.8 108.168 243.948 108.168C244.858 108.168 245.628 107.846 246.188 107.23V108H247.238ZM244.326 107.412C243.346 107.412 242.66 106.796 242.66 105.942C242.66 105.074 243.346 104.458 244.326 104.458C245.068 104.458 245.782 104.738 246.188 105.298V106.572C245.782 107.132 245.068 107.412 244.326 107.412ZM250.393 108V98.662H249.343V108H250.393ZM254.63 108.168C256.38 108.168 257.29 107.258 257.29 106.124C257.29 103.492 253.104 104.472 253.104 102.988C253.104 102.386 253.678 101.924 254.602 101.924C255.47 101.924 256.212 102.288 256.618 102.778L257.108 102.05C256.562 101.504 255.75 101.07 254.602 101.07C252.992 101.07 252.082 101.966 252.082 103.016C252.082 105.522 256.268 104.514 256.268 106.152C256.268 106.824 255.708 107.314 254.672 107.314C253.748 107.314 252.894 106.866 252.446 106.348L251.899 107.104C252.586 107.832 253.524 108.168 254.63 108.168ZM261.949 108.168C264.007 108.168 265.295 106.572 265.295 104.612C265.295 102.652 264.007 101.07 261.949 101.07C259.891 101.07 258.603 102.652 258.603 104.612C258.603 106.572 259.891 108.168 261.949 108.168ZM261.949 107.23C260.507 107.23 259.695 105.998 259.695 104.612C259.695 103.24 260.507 102.008 261.949 102.008C263.391 102.008 264.189 103.24 264.189 104.612C264.189 105.998 263.391 107.23 261.949 107.23ZM271.666 108V98.662H270.616V108H271.666ZM276.813 108.168C277.919 108.168 278.829 107.804 279.501 107.132L278.997 106.446C278.465 106.992 277.681 107.3 276.911 107.3C275.455 107.3 274.559 106.236 274.475 104.962H279.949V104.696C279.949 102.666 278.745 101.07 276.701 101.07C274.769 101.07 273.369 102.652 273.369 104.612C273.369 106.726 274.811 108.168 276.813 108.168ZM278.913 104.192H274.475C274.531 103.156 275.245 101.938 276.687 101.938C278.227 101.938 278.899 103.184 278.913 104.192ZM283.358 108.168C283.974 108.168 284.352 107.986 284.618 107.734L284.31 106.95C284.17 107.104 283.89 107.23 283.596 107.23C283.134 107.23 282.91 106.866 282.91 106.362V102.162H284.282V101.238H282.91V99.39H281.86V101.238H280.74V102.162H281.86V106.586C281.86 107.594 282.364 108.168 283.358 108.168ZM288.996 110.646C289.192 110.702 289.542 110.744 289.766 110.744C290.662 110.73 291.348 110.352 291.754 109.372L295.142 101.238H293.994L291.754 106.782L289.5 101.238H288.366L291.194 108.07L290.746 109.092C290.508 109.652 290.2 109.806 289.738 109.806C289.57 109.806 289.318 109.764 289.164 109.694L288.996 110.646ZM299.192 108.168C301.25 108.168 302.538 106.572 302.538 104.612C302.538 102.652 301.25 101.07 299.192 101.07C297.134 101.07 295.846 102.652 295.846 104.612C295.846 106.572 297.134 108.168 299.192 108.168ZM299.192 107.23C297.75 107.23 296.938 105.998 296.938 104.612C296.938 103.24 297.75 102.008 299.192 102.008C300.634 102.008 301.432 103.24 301.432 104.612C301.432 105.998 300.634 107.23 299.192 107.23ZM309.863 108V101.238H308.813V106.208C308.421 106.754 307.637 107.23 306.811 107.23C305.901 107.23 305.299 106.88 305.299 105.69V101.238H304.249V106.012C304.249 107.482 304.991 108.168 306.405 108.168C307.413 108.168 308.295 107.636 308.813 107.048V108H309.863ZM64.6113 128L61.6013 124.304L64.5973 121.238H63.2673L59.7113 124.836V118.662H58.6613V128H59.7113V126.068L60.8313 124.962L63.2673 128H64.6113ZM71.4667 128V123.254C71.4667 121.784 70.7247 121.07 69.3107 121.07C68.3027 121.07 67.3787 121.658 66.9027 122.218V121.238H65.8527V128H66.9027V123.058C67.2947 122.512 68.0787 122.008 68.9047 122.008C69.8147 122.008 70.4167 122.386 70.4167 123.576V128H71.4667ZM76.5177 128.168C78.5757 128.168 79.8637 126.572 79.8637 124.612C79.8637 122.652 78.5757 121.07 76.5177 121.07C74.4597 121.07 73.1717 122.652 73.1717 124.612C73.1717 126.572 74.4597 128.168 76.5177 128.168ZM76.5177 127.23C75.0757 127.23 74.2637 125.998 74.2637 124.612C74.2637 123.24 75.0757 122.008 76.5177 122.008C77.9597 122.008 78.7577 123.24 78.7577 124.612C78.7577 125.998 77.9597 127.23 76.5177 127.23ZM88.4774 128L90.6334 121.238H89.5414L87.8894 126.628L86.1114 121.238H85.2154L83.4374 126.628L81.7854 121.238H80.6934L82.8494 128H83.8994L85.6634 122.568L87.4274 128H88.4774ZM102.368 128L104.524 121.238H103.432L101.78 126.628L100.002 121.238H99.106L97.328 126.628L95.676 121.238H94.584L96.74 128H97.79L99.554 122.568L101.318 128H102.368ZM111.375 128V123.226C111.375 121.756 110.633 121.07 109.219 121.07C108.197 121.07 107.273 121.658 106.797 122.218V118.662H105.747V128H106.797V123.058C107.203 122.512 107.987 122.008 108.799 122.008C109.709 122.008 110.325 122.358 110.325 123.548V128H111.375ZM116.524 128.168C117.63 128.168 118.54 127.804 119.212 127.132L118.708 126.446C118.176 126.992 117.392 127.3 116.622 127.3C115.166 127.3 114.27 126.236 114.186 124.962H119.66V124.696C119.66 122.666 118.456 121.07 116.412 121.07C114.48 121.07 113.08 122.652 113.08 124.612C113.08 126.726 114.522 128.168 116.524 128.168ZM118.624 124.192H114.186C114.242 123.156 114.956 121.938 116.398 121.938C117.938 121.938 118.61 123.184 118.624 124.192ZM126.975 128V123.254C126.975 121.784 126.233 121.07 124.819 121.07C123.811 121.07 122.887 121.658 122.411 122.218V121.238H121.361V128H122.411V123.058C122.803 122.512 123.587 122.008 124.413 122.008C125.323 122.008 125.925 122.386 125.925 123.576V128H126.975ZM132.303 130.646C132.499 130.702 132.849 130.744 133.073 130.744C133.969 130.73 134.655 130.352 135.061 129.372L138.449 121.238H137.301L135.061 126.782L132.807 121.238H131.673L134.501 128.07L134.053 129.092C133.815 129.652 133.507 129.806 133.045 129.806C132.877 129.806 132.625 129.764 132.471 129.694L132.303 130.646ZM142.498 128.168C144.556 128.168 145.844 126.572 145.844 124.612C145.844 122.652 144.556 121.07 142.498 121.07C140.44 121.07 139.152 122.652 139.152 124.612C139.152 126.572 140.44 128.168 142.498 128.168ZM142.498 127.23C141.056 127.23 140.244 125.998 140.244 124.612C140.244 123.24 141.056 122.008 142.498 122.008C143.94 122.008 144.738 123.24 144.738 124.612C144.738 125.998 143.94 127.23 142.498 127.23ZM153.17 128V121.238H152.12V126.208C151.728 126.754 150.944 127.23 150.118 127.23C149.208 127.23 148.606 126.88 148.606 125.69V121.238H147.556V126.012C147.556 127.482 148.298 128.168 149.712 128.168C150.72 128.168 151.602 127.636 152.12 127.048V128H153.17ZM161.858 128.168C163.09 128.168 163.818 127.664 164.336 126.992L163.636 126.348C163.188 126.95 162.614 127.23 161.914 127.23C160.472 127.23 159.576 126.11 159.576 124.612C159.576 123.114 160.472 122.008 161.914 122.008C162.614 122.008 163.188 122.274 163.636 122.89L164.336 122.246C163.818 121.574 163.09 121.07 161.858 121.07C159.842 121.07 158.484 122.61 158.484 124.612C158.484 126.628 159.842 128.168 161.858 128.168ZM171.086 128V123.352C171.086 121.714 169.896 121.07 168.468 121.07C167.362 121.07 166.494 121.434 165.766 122.19L166.256 122.918C166.858 122.274 167.516 121.98 168.328 121.98C169.308 121.98 170.036 122.498 170.036 123.408V124.626C169.49 123.996 168.72 123.702 167.796 123.702C166.648 123.702 165.43 124.416 165.43 125.928C165.43 127.398 166.648 128.168 167.796 128.168C168.706 128.168 169.476 127.846 170.036 127.23V128H171.086ZM168.174 127.412C167.194 127.412 166.508 126.796 166.508 125.942C166.508 125.074 167.194 124.458 168.174 124.458C168.916 124.458 169.63 124.738 170.036 125.298V126.572C169.63 127.132 168.916 127.412 168.174 127.412ZM178.805 128V123.254C178.805 121.784 178.063 121.07 176.649 121.07C175.641 121.07 174.717 121.658 174.241 122.218V121.238H173.191V128H174.241V123.058C174.633 122.512 175.417 122.008 176.243 122.008C177.153 122.008 177.755 122.386 177.755 123.576V128H178.805ZM187.227 130.744C188.879 130.744 190.447 130.044 190.447 127.804V121.238H189.397V122.26C188.851 121.518 188.039 121.07 187.129 121.07C185.351 121.07 184.119 122.414 184.119 124.584C184.119 126.768 185.365 128.084 187.129 128.084C188.081 128.084 188.907 127.566 189.397 126.88V127.846C189.397 129.33 188.347 129.876 187.227 129.876C186.261 129.876 185.589 129.624 185.029 128.952L184.497 129.736C185.295 130.52 186.079 130.744 187.227 130.744ZM187.381 127.16C186.023 127.16 185.211 126.068 185.211 124.584C185.211 123.086 186.023 122.008 187.381 122.008C188.221 122.008 189.033 122.512 189.397 123.1V126.054C189.033 126.642 188.221 127.16 187.381 127.16ZM195.602 128.168C196.708 128.168 197.618 127.804 198.29 127.132L197.786 126.446C197.254 126.992 196.47 127.3 195.7 127.3C194.244 127.3 193.348 126.236 193.264 124.962H198.738V124.696C198.738 122.666 197.534 121.07 195.49 121.07C193.558 121.07 192.158 122.652 192.158 124.612C192.158 126.726 193.6 128.168 195.602 128.168ZM197.702 124.192H193.264C193.32 123.156 194.034 121.938 195.476 121.938C197.016 121.938 197.688 123.184 197.702 124.192ZM202.147 128.168C202.763 128.168 203.141 127.986 203.407 127.734L203.099 126.95C202.959 127.104 202.679 127.23 202.385 127.23C201.923 127.23 201.699 126.866 201.699 126.362V122.162H203.071V121.238H201.699V119.39H200.649V121.238H199.529V122.162H200.649V126.586C200.649 127.594 201.153 128.168 202.147 128.168ZM213.441 128V123.352C213.441 121.714 212.251 121.07 210.823 121.07C209.717 121.07 208.849 121.434 208.121 122.19L208.611 122.918C209.213 122.274 209.871 121.98 210.683 121.98C211.663 121.98 212.391 122.498 212.391 123.408V124.626C211.845 123.996 211.075 123.702 210.151 123.702C209.003 123.702 207.785 124.416 207.785 125.928C207.785 127.398 209.003 128.168 210.151 128.168C211.061 128.168 211.831 127.846 212.391 127.23V128H213.441ZM210.529 127.412C209.549 127.412 208.863 126.796 208.863 125.942C208.863 125.074 209.549 124.458 210.529 124.458C211.271 124.458 211.985 124.738 212.391 125.298V126.572C211.985 127.132 211.271 127.412 210.529 127.412ZM225.105 128V118.662H224.055V122.26C223.509 121.518 222.683 121.07 221.773 121.07C219.995 121.07 218.763 122.47 218.763 124.626C218.763 126.824 220.009 128.168 221.773 128.168C222.725 128.168 223.551 127.678 224.055 126.992V128H225.105ZM222.025 127.23C220.667 127.23 219.855 126.124 219.855 124.626C219.855 123.128 220.667 122.008 222.025 122.008C222.865 122.008 223.677 122.512 224.055 123.1V126.166C223.677 126.754 222.865 127.23 222.025 127.23ZM228.258 128V123.212C228.566 122.666 229.448 122.134 230.092 122.134C230.26 122.134 230.386 122.148 230.512 122.176V121.098C229.588 121.098 228.804 121.616 228.258 122.33V121.238H227.208V128H228.258ZM232.347 120.272C232.739 120.272 233.061 119.964 233.061 119.572C233.061 119.18 232.739 118.858 232.347 118.858C231.969 118.858 231.647 119.18 231.647 119.572C231.647 119.964 231.969 120.272 232.347 120.272ZM232.879 128V121.238H231.829V128H232.879ZM240.588 128V123.254C240.588 121.784 239.846 121.07 238.432 121.07C237.424 121.07 236.5 121.658 236.024 122.218V121.238H234.974V128H236.024V123.058C236.416 122.512 237.2 122.008 238.026 122.008C238.936 122.008 239.538 122.386 239.538 123.576V128H240.588ZM248.635 128L245.625 124.304L248.621 121.238H247.291L243.735 124.836V118.662H242.685V128H243.735V126.068L244.855 124.962L247.291 128H248.635ZM259.1 128V123.254C259.1 121.784 258.358 121.07 256.944 121.07C255.936 121.07 255.012 121.658 254.536 122.218V121.238H253.486V128H254.536V123.058C254.928 122.512 255.712 122.008 256.538 122.008C257.448 122.008 258.05 122.386 258.05 123.576V128H259.1ZM264.248 128.168C265.354 128.168 266.264 127.804 266.936 127.132L266.432 126.446C265.9 126.992 265.116 127.3 264.346 127.3C262.89 127.3 261.994 126.236 261.91 124.962H267.384V124.696C267.384 122.666 266.18 121.07 264.136 121.07C262.204 121.07 260.804 122.652 260.804 124.612C260.804 126.726 262.246 128.168 264.248 128.168ZM266.348 124.192H261.91C261.966 123.156 262.68 121.938 264.122 121.938C265.662 121.938 266.334 123.184 266.348 124.192ZM274.363 128V123.352C274.363 121.714 273.173 121.07 271.745 121.07C270.639 121.07 269.771 121.434 269.043 122.19L269.533 122.918C270.135 122.274 270.793 121.98 271.605 121.98C272.585 121.98 273.313 122.498 273.313 123.408V124.626C272.767 123.996 271.997 123.702 271.073 123.702C269.925 123.702 268.707 124.416 268.707 125.928C268.707 127.398 269.925 128.168 271.073 128.168C271.983 128.168 272.753 127.846 273.313 127.23V128H274.363ZM271.451 127.412C270.471 127.412 269.785 126.796 269.785 125.942C269.785 125.074 270.471 124.458 271.451 124.458C272.193 124.458 272.907 124.738 273.313 125.298V126.572C272.907 127.132 272.193 127.412 271.451 127.412ZM277.518 128V123.212C277.826 122.666 278.708 122.134 279.352 122.134C279.52 122.134 279.646 122.148 279.772 122.176V121.098C278.848 121.098 278.064 121.616 277.518 122.33V121.238H276.468V128H277.518ZM282.139 126.166V123.1C282.503 122.512 283.329 122.008 284.155 122.008C285.527 122.008 286.339 123.128 286.339 124.626C286.339 126.124 285.527 127.23 284.155 127.23C283.329 127.23 282.503 126.754 282.139 126.166ZM282.139 128V126.992C282.643 127.678 283.469 128.168 284.421 128.168C286.185 128.168 287.431 126.824 287.431 124.626C287.431 122.47 286.185 121.07 284.421 121.07C283.497 121.07 282.685 121.518 282.139 122.26V118.662H281.089V128H282.139ZM288.764 130.646C288.96 130.702 289.31 130.744 289.534 130.744C290.43 130.73 291.116 130.352 291.522 129.372L294.91 121.238H293.762L291.522 126.782L289.268 121.238H288.134L290.962 128.07L290.514 129.092C290.276 129.652 289.968 129.806 289.506 129.806C289.338 129.806 289.086 129.764 288.932 129.694L288.764 130.646ZM295.772 128.14C296.192 128.14 296.542 127.79 296.542 127.37C296.542 126.95 296.192 126.6 295.772 126.6C295.352 126.6 295.002 126.95 295.002 127.37C295.002 127.79 295.352 128.14 295.772 128.14Z" fill="#000"/>

</svg>
