<svg width="300" height="153" viewBox="0 0 300 153" fill="none" xmlns="http://www.w3.org/2000/svg">
<g filter="url(#filter0_dd_1447_1623)">
<path d="M150 115L143.072 109L156.928 109L150 115Z" fill="white"/>
<rect x="6" y="24" width="288" height="86" rx="12" fill="white"/>
<path d="M41.7891 72H40.1511V67.912H35.2931V72H33.6551V62.662H35.2931V66.47H40.1511V62.662H41.7891V72ZM49.3443 72H47.8743V71.258C47.3517 71.8647 46.619 72.168 45.6763 72.168C45.0697 72.168 44.5283 71.9673 44.0523 71.566C43.5763 71.1647 43.3383 70.6187 43.3383 69.928C43.3383 69.2 43.5717 68.6493 44.0383 68.276C44.505 67.9027 45.051 67.716 45.6763 67.716C46.6377 67.716 47.3703 68.0053 47.8743 68.584V67.576C47.8743 67.1933 47.725 66.89 47.4263 66.666C47.137 66.4327 46.759 66.316 46.2923 66.316C45.527 66.316 44.8597 66.6053 44.2903 67.184L43.6743 66.162C44.4303 65.434 45.3777 65.07 46.5163 65.07C47.347 65.07 48.0237 65.266 48.5463 65.658C49.0783 66.0407 49.3443 66.6567 49.3443 67.506V72ZM46.2643 71.16C46.983 71.16 47.5197 70.9267 47.8743 70.46V69.424C47.5197 68.9573 46.983 68.724 46.2643 68.724C45.8443 68.724 45.4943 68.836 45.2143 69.06C44.9437 69.284 44.8083 69.578 44.8083 69.942C44.8083 70.306 44.9437 70.6 45.2143 70.824C45.4943 71.048 45.8443 71.16 46.2643 71.16ZM54.8899 72.168C54.0219 72.168 53.2985 71.7993 52.7199 71.062V74.576H51.2499V65.238H52.7199V66.162C53.2705 65.434 53.9939 65.07 54.8899 65.07C55.7765 65.07 56.4952 65.3873 57.0459 66.022C57.6059 66.6567 57.8859 67.52 57.8859 68.612C57.8859 69.704 57.6059 70.572 57.0459 71.216C56.4952 71.8507 55.7765 72.168 54.8899 72.168ZM54.4559 70.866C55.0345 70.866 55.4965 70.656 55.8419 70.236C56.1965 69.816 56.3739 69.2747 56.3739 68.612C56.3739 67.9493 56.1965 67.4127 55.8419 67.002C55.4965 66.582 55.0345 66.372 54.4559 66.372C54.1199 66.372 53.7885 66.4607 53.4619 66.638C53.1352 66.806 52.8879 67.016 52.7199 67.268V69.942C52.8879 70.2033 53.1352 70.4227 53.4619 70.6C53.7885 70.7773 54.1199 70.866 54.4559 70.866ZM62.9973 72.168C62.1293 72.168 61.4059 71.7993 60.8273 71.062V74.576H59.3573V65.238H60.8273V66.162C61.3779 65.434 62.1013 65.07 62.9973 65.07C63.8839 65.07 64.6026 65.3873 65.1533 66.022C65.7133 66.6567 65.9933 67.52 65.9933 68.612C65.9933 69.704 65.7133 70.572 65.1533 71.216C64.6026 71.8507 63.8839 72.168 62.9973 72.168ZM62.5633 70.866C63.1419 70.866 63.6039 70.656 63.9493 70.236C64.3039 69.816 64.4813 69.2747 64.4813 68.612C64.4813 67.9493 64.3039 67.4127 63.9493 67.002C63.6039 66.582 63.1419 66.372 62.5633 66.372C62.2273 66.372 61.8959 66.4607 61.5693 66.638C61.2426 66.806 60.9953 67.016 60.8273 67.268V69.942C60.9953 70.2033 61.2426 70.4227 61.5693 70.6C61.8959 70.7773 62.2273 70.866 62.5633 70.866ZM67.1847 74.646L67.3947 73.33C67.5627 73.4047 67.7494 73.442 67.9547 73.442C68.44 73.442 68.7667 73.246 68.9347 72.854L69.2707 72.084L66.4847 65.238H68.0667L70.0407 70.306L72.0147 65.238H73.5827L70.3207 73.218C70.0967 73.7687 69.7934 74.156 69.4107 74.38C69.0374 74.6133 68.5707 74.7347 68.0107 74.744C67.684 74.744 67.4087 74.7113 67.1847 74.646ZM86.2911 72H84.6531V67.912H79.7951V72H78.1571V62.662H79.7951V66.47H84.6531V62.662H86.2911V72ZM93.8183 71.146C93.1836 71.8273 92.3436 72.168 91.2983 72.168C90.2529 72.168 89.4129 71.8273 88.7783 71.146C88.1436 70.4553 87.8263 69.6107 87.8263 68.612C87.8263 67.604 88.1436 66.764 88.7783 66.092C89.4129 65.4107 90.2529 65.07 91.2983 65.07C92.3436 65.07 93.1836 65.4107 93.8183 66.092C94.4529 66.764 94.7703 67.604 94.7703 68.612C94.7703 69.6107 94.4529 70.4553 93.8183 71.146ZM91.2983 70.866C91.9049 70.866 92.3809 70.6513 92.7263 70.222C93.0716 69.7833 93.2443 69.2467 93.2443 68.612C93.2443 67.9867 93.0716 67.4593 92.7263 67.03C92.3809 66.5913 91.9049 66.372 91.2983 66.372C90.7009 66.372 90.2249 66.5913 89.8703 67.03C89.5249 67.4593 89.3523 67.9867 89.3523 68.612C89.3523 69.2467 89.5249 69.7833 89.8703 70.222C90.2249 70.6513 90.7009 70.866 91.2983 70.866ZM102.305 72H100.835V71.104C100.201 71.8133 99.4073 72.168 98.4553 72.168C97.7367 72.168 97.1907 71.986 96.8173 71.622C96.4533 71.2487 96.2713 70.7167 96.2713 70.026V65.238H97.7413V69.48C97.7413 69.984 97.858 70.3433 98.0913 70.558C98.3247 70.7633 98.6653 70.866 99.1133 70.866C99.4587 70.866 99.7853 70.782 100.093 70.614C100.401 70.4367 100.649 70.2267 100.835 69.984V65.238H102.305V72ZM105.685 72H104.215V65.238H105.685V66.218C105.955 65.882 106.282 65.6067 106.665 65.392C107.057 65.1773 107.463 65.07 107.883 65.07V66.526C107.761 66.498 107.612 66.484 107.435 66.484C107.117 66.484 106.781 66.5773 106.427 66.764C106.081 66.9413 105.834 67.1513 105.685 67.394V72ZM118.292 72H116.822V71.258C116.299 71.8647 115.566 72.168 114.624 72.168C114.017 72.168 113.476 71.9673 113 71.566C112.524 71.1647 112.286 70.6187 112.286 69.928C112.286 69.2 112.519 68.6493 112.986 68.276C113.452 67.9027 113.998 67.716 114.624 67.716C115.585 67.716 116.318 68.0053 116.822 68.584V67.576C116.822 67.1933 116.672 66.89 116.374 66.666C116.084 66.4327 115.706 66.316 115.24 66.316C114.474 66.316 113.807 66.6053 113.238 67.184L112.622 66.162C113.378 65.434 114.325 65.07 115.464 65.07C116.294 65.07 116.971 65.266 117.494 65.658C118.026 66.0407 118.292 66.6567 118.292 67.506V72ZM115.212 71.16C115.93 71.16 116.467 70.9267 116.822 70.46V69.424C116.467 68.9573 115.93 68.724 115.212 68.724C114.792 68.724 114.442 68.836 114.162 69.06C113.891 69.284 113.756 69.578 113.756 69.942C113.756 70.306 113.891 70.6 114.162 70.824C114.442 71.048 114.792 71.16 115.212 71.16ZM122.241 72.168C121.084 72.168 120.505 71.5847 120.505 70.418V66.512H119.385V65.238H120.505V63.39H121.975V65.238H123.347V66.512H121.975V70.054C121.975 70.2967 122.031 70.4927 122.143 70.642C122.255 70.7913 122.414 70.866 122.619 70.866C122.899 70.866 123.114 70.782 123.263 70.614L123.613 71.734C123.286 72.0233 122.829 72.168 122.241 72.168ZM132.183 72H130.545V64.104H127.717V62.662H135.011V64.104H132.183V72ZM142.405 72H140.935V67.744C140.935 67.24 140.819 66.8853 140.585 66.68C140.361 66.4747 140.025 66.372 139.577 66.372C139.223 66.372 138.891 66.4607 138.583 66.638C138.275 66.806 138.028 67.016 137.841 67.268V72H136.371V62.662H137.841V66.148C138.093 65.8493 138.429 65.5973 138.849 65.392C139.269 65.1773 139.727 65.07 140.221 65.07C141.677 65.07 142.405 65.784 142.405 67.212V72ZM147.45 72.168C146.414 72.168 145.565 71.8413 144.902 71.188C144.24 70.5347 143.908 69.676 143.908 68.612C143.908 67.6227 144.23 66.7873 144.874 66.106C145.528 65.4153 146.349 65.07 147.338 65.07C148.337 65.07 149.14 65.4153 149.746 66.106C150.353 66.7873 150.656 67.6647 150.656 68.738V69.102H145.448C145.504 69.634 145.724 70.0773 146.106 70.432C146.489 70.7867 146.984 70.964 147.59 70.964C148.374 70.964 149.018 70.712 149.522 70.208L150.194 71.174C149.485 71.8367 148.57 72.168 147.45 72.168ZM149.242 68.052C149.214 67.5853 149.037 67.1747 148.71 66.82C148.393 66.456 147.931 66.274 147.324 66.274C146.746 66.274 146.293 66.456 145.966 66.82C145.64 67.1747 145.462 67.5853 145.434 68.052H149.242ZM159.623 72H157.985V64.104H155.157V62.662H162.451V64.104H159.623V72ZM169.845 72H168.375V67.744C168.375 67.24 168.258 66.8853 168.025 66.68C167.801 66.4747 167.465 66.372 167.017 66.372C166.662 66.372 166.331 66.4607 166.023 66.638C165.715 66.806 165.467 67.016 165.281 67.268V72H163.811V62.662H165.281V66.148C165.533 65.8493 165.869 65.5973 166.289 65.392C166.709 65.1773 167.166 65.07 167.661 65.07C169.117 65.07 169.845 65.784 169.845 67.212V72ZM173.224 72H171.754V65.238H173.224V66.218C173.494 65.882 173.821 65.6067 174.204 65.392C174.596 65.1773 175.002 65.07 175.422 65.07V66.526C175.3 66.498 175.151 66.484 174.974 66.484C174.656 66.484 174.32 66.5773 173.966 66.764C173.62 66.9413 173.373 67.1513 173.224 67.394V72ZM179.743 72.168C178.707 72.168 177.858 71.8413 177.195 71.188C176.533 70.5347 176.201 69.676 176.201 68.612C176.201 67.6227 176.523 66.7873 177.167 66.106C177.821 65.4153 178.642 65.07 179.631 65.07C180.63 65.07 181.433 65.4153 182.039 66.106C182.646 66.7873 182.949 67.6647 182.949 68.738V69.102H177.741C177.797 69.634 178.017 70.0773 178.399 70.432C178.782 70.7867 179.277 70.964 179.883 70.964C180.667 70.964 181.311 70.712 181.815 70.208L182.487 71.174C181.778 71.8367 180.863 72.168 179.743 72.168ZM181.535 68.052C181.507 67.5853 181.33 67.1747 181.003 66.82C180.686 66.456 180.224 66.274 179.617 66.274C179.039 66.274 178.586 66.456 178.259 66.82C177.933 67.1747 177.755 67.5853 177.727 68.052H181.535ZM187.536 72.168C186.5 72.168 185.651 71.8413 184.988 71.188C184.326 70.5347 183.994 69.676 183.994 68.612C183.994 67.6227 184.316 66.7873 184.96 66.106C185.614 65.4153 186.435 65.07 187.424 65.07C188.423 65.07 189.226 65.4153 189.832 66.106C190.439 66.7873 190.742 67.6647 190.742 68.738V69.102H185.534C185.59 69.634 185.81 70.0773 186.192 70.432C186.575 70.7867 187.07 70.964 187.676 70.964C188.46 70.964 189.104 70.712 189.608 70.208L190.28 71.174C189.571 71.8367 188.656 72.168 187.536 72.168ZM189.328 68.052C189.3 67.5853 189.123 67.1747 188.796 66.82C188.479 66.456 188.017 66.274 187.41 66.274C186.832 66.274 186.379 66.456 186.052 66.82C185.726 67.1747 185.548 67.5853 185.52 68.052H189.328ZM200.339 72.168C198.939 72.168 197.772 71.72 196.839 70.824C195.905 69.9187 195.439 68.7567 195.439 67.338C195.439 65.9193 195.905 64.762 196.839 63.866C197.772 62.9607 198.939 62.508 200.339 62.508C201.981 62.508 203.227 63.2033 204.077 64.594L202.691 65.322C202.457 64.9207 202.126 64.594 201.697 64.342C201.277 64.09 200.824 63.964 200.339 63.964C199.415 63.964 198.645 64.2813 198.029 64.916C197.422 65.5507 197.119 66.358 197.119 67.338C197.119 68.3087 197.422 69.116 198.029 69.76C198.645 70.3947 199.415 70.712 200.339 70.712C200.824 70.712 201.277 70.586 201.697 70.334C202.126 70.0727 202.457 69.746 202.691 69.354L204.091 70.054C203.195 71.4633 201.944 72.168 200.339 72.168ZM210.932 71.146C210.297 71.8273 209.457 72.168 208.412 72.168C207.366 72.168 206.526 71.8273 205.892 71.146C205.257 70.4553 204.94 69.6107 204.94 68.612C204.94 67.604 205.257 66.764 205.892 66.092C206.526 65.4107 207.366 65.07 208.412 65.07C209.457 65.07 210.297 65.4107 210.932 66.092C211.566 66.764 211.884 67.604 211.884 68.612C211.884 69.6107 211.566 70.4553 210.932 71.146ZM208.412 70.866C209.018 70.866 209.494 70.6513 209.84 70.222C210.185 69.7833 210.358 69.2467 210.358 68.612C210.358 67.9867 210.185 67.4593 209.84 67.03C209.494 66.5913 209.018 66.372 208.412 66.372C207.814 66.372 207.338 66.5913 206.984 67.03C206.638 67.4593 206.466 67.9867 206.466 68.612C206.466 69.2467 206.638 69.7833 206.984 70.222C207.338 70.6513 207.814 70.866 208.412 70.866ZM223.157 72H221.687V67.59C221.687 66.778 221.313 66.372 220.567 66.372C220.259 66.372 219.96 66.4607 219.671 66.638C219.381 66.8153 219.157 67.0253 218.999 67.268V72H217.529V67.59C217.529 66.778 217.16 66.372 216.423 66.372C216.115 66.372 215.816 66.4607 215.527 66.638C215.247 66.8153 215.023 67.0253 214.855 67.268V72H213.385V65.238H214.855V66.148C215.041 65.896 215.34 65.6533 215.751 65.42C216.161 65.1867 216.6 65.07 217.067 65.07C217.552 65.07 217.953 65.182 218.271 65.406C218.588 65.6207 218.803 65.9193 218.915 66.302C219.12 65.9753 219.433 65.6907 219.853 65.448C220.282 65.196 220.735 65.07 221.211 65.07C221.836 65.07 222.317 65.2427 222.653 65.588C222.989 65.9333 223.157 66.442 223.157 67.114V72ZM228.7 72.168C227.832 72.168 227.109 71.7993 226.53 71.062V74.576H225.06V65.238H226.53V66.162C227.081 65.434 227.804 65.07 228.7 65.07C229.587 65.07 230.306 65.3873 230.856 66.022C231.416 66.6567 231.696 67.52 231.696 68.612C231.696 69.704 231.416 70.572 230.856 71.216C230.306 71.8507 229.587 72.168 228.7 72.168ZM228.266 70.866C228.845 70.866 229.307 70.656 229.652 70.236C230.007 69.816 230.184 69.2747 230.184 68.612C230.184 67.9493 230.007 67.4127 229.652 67.002C229.307 66.582 228.845 66.372 228.266 66.372C227.93 66.372 227.599 66.4607 227.272 66.638C226.946 66.806 226.698 67.016 226.53 67.268V69.942C226.698 70.2033 226.946 70.4227 227.272 70.6C227.599 70.7773 227.93 70.866 228.266 70.866ZM238.782 72H237.312V71.258C236.789 71.8647 236.056 72.168 235.114 72.168C234.507 72.168 233.966 71.9673 233.49 71.566C233.014 71.1647 232.776 70.6187 232.776 69.928C232.776 69.2 233.009 68.6493 233.476 68.276C233.942 67.9027 234.488 67.716 235.114 67.716C236.075 67.716 236.808 68.0053 237.312 68.584V67.576C237.312 67.1933 237.162 66.89 236.864 66.666C236.574 66.4327 236.196 66.316 235.73 66.316C234.964 66.316 234.297 66.6053 233.728 67.184L233.112 66.162C233.868 65.434 234.815 65.07 235.954 65.07C236.784 65.07 237.461 65.266 237.984 65.658C238.516 66.0407 238.782 66.6567 238.782 67.506V72ZM235.702 71.16C236.42 71.16 236.957 70.9267 237.312 70.46V69.424C236.957 68.9573 236.42 68.724 235.702 68.724C235.282 68.724 234.932 68.836 234.652 69.06C234.381 69.284 234.246 69.578 234.246 69.942C234.246 70.306 234.381 70.6 234.652 70.824C234.932 71.048 235.282 71.16 235.702 71.16ZM243.011 72.168C241.807 72.168 240.841 71.8133 240.113 71.104L240.785 70.054C241.037 70.3153 241.373 70.5393 241.793 70.726C242.223 70.9033 242.647 70.992 243.067 70.992C243.497 70.992 243.828 70.9127 244.061 70.754C244.295 70.586 244.411 70.3667 244.411 70.096C244.411 69.8533 244.271 69.6667 243.991 69.536C243.711 69.396 243.371 69.2887 242.969 69.214C242.568 69.13 242.167 69.032 241.765 68.92C241.364 68.7987 241.023 68.5887 240.743 68.29C240.463 67.9913 240.323 67.5993 240.323 67.114C240.323 66.5353 240.561 66.05 241.037 65.658C241.513 65.266 242.162 65.07 242.983 65.07C244.019 65.07 244.892 65.3827 245.601 66.008L244.985 67.044C244.491 66.5027 243.823 66.232 242.983 66.232C242.61 66.232 242.307 66.3113 242.073 66.47C241.849 66.6287 241.737 66.8293 241.737 67.072C241.737 67.2867 241.877 67.4547 242.157 67.576C242.437 67.6973 242.778 67.8 243.179 67.884C243.581 67.9587 243.982 68.0567 244.383 68.178C244.785 68.2993 245.125 68.5187 245.405 68.836C245.685 69.1533 245.825 69.5593 245.825 70.054C245.825 70.6793 245.578 71.188 245.083 71.58C244.589 71.972 243.898 72.168 243.011 72.168ZM249.615 72.168C248.411 72.168 247.445 71.8133 246.717 71.104L247.389 70.054C247.641 70.3153 247.977 70.5393 248.397 70.726C248.826 70.9033 249.251 70.992 249.671 70.992C250.1 70.992 250.432 70.9127 250.665 70.754C250.898 70.586 251.015 70.3667 251.015 70.096C251.015 69.8533 250.875 69.6667 250.595 69.536C250.315 69.396 249.974 69.2887 249.573 69.214C249.172 69.13 248.77 69.032 248.369 68.92C247.968 68.7987 247.627 68.5887 247.347 68.29C247.067 67.9913 246.927 67.5993 246.927 67.114C246.927 66.5353 247.165 66.05 247.641 65.658C248.117 65.266 248.766 65.07 249.587 65.07C250.623 65.07 251.496 65.3827 252.205 66.008L251.589 67.044C251.094 66.5027 250.427 66.232 249.587 66.232C249.214 66.232 248.91 66.3113 248.677 66.47C248.453 66.6287 248.341 66.8293 248.341 67.072C248.341 67.2867 248.481 67.4547 248.761 67.576C249.041 67.6973 249.382 67.8 249.783 67.884C250.184 67.9587 250.586 68.0567 250.987 68.178C251.388 68.2993 251.729 68.5187 252.009 68.836C252.289 69.1533 252.429 69.5593 252.429 70.054C252.429 70.6793 252.182 71.188 251.687 71.58C251.192 71.972 250.502 72.168 249.615 72.168ZM257.03 72.168C255.994 72.168 255.145 71.8413 254.482 71.188C253.82 70.5347 253.488 69.676 253.488 68.612C253.488 67.6227 253.81 66.7873 254.454 66.106C255.108 65.4153 255.929 65.07 256.918 65.07C257.917 65.07 258.72 65.4153 259.326 66.106C259.933 66.7873 260.236 67.6647 260.236 68.738V69.102H255.028C255.084 69.634 255.304 70.0773 255.686 70.432C256.069 70.7867 256.564 70.964 257.17 70.964C257.954 70.964 258.598 70.712 259.102 70.208L259.774 71.174C259.065 71.8367 258.15 72.168 257.03 72.168ZM258.822 68.052C258.794 67.5853 258.617 67.1747 258.29 66.82C257.973 66.456 257.511 66.274 256.904 66.274C256.326 66.274 255.873 66.456 255.546 66.82C255.22 67.1747 255.042 67.5853 255.014 68.052H258.822ZM264.011 72.168C262.807 72.168 261.841 71.8133 261.113 71.104L261.785 70.054C262.037 70.3153 262.373 70.5393 262.793 70.726C263.223 70.9033 263.647 70.992 264.067 70.992C264.497 70.992 264.828 70.9127 265.061 70.754C265.295 70.586 265.411 70.3667 265.411 70.096C265.411 69.8533 265.271 69.6667 264.991 69.536C264.711 69.396 264.371 69.2887 263.969 69.214C263.568 69.13 263.167 69.032 262.765 68.92C262.364 68.7987 262.023 68.5887 261.743 68.29C261.463 67.9913 261.323 67.5993 261.323 67.114C261.323 66.5353 261.561 66.05 262.037 65.658C262.513 65.266 263.162 65.07 263.983 65.07C265.019 65.07 265.892 65.3827 266.601 66.008L265.985 67.044C265.491 66.5027 264.823 66.232 263.983 66.232C263.61 66.232 263.307 66.3113 263.073 66.47C262.849 66.6287 262.737 66.8293 262.737 67.072C262.737 67.2867 262.877 67.4547 263.157 67.576C263.437 67.6973 263.778 67.8 264.179 67.884C264.581 67.9587 264.982 68.0567 265.383 68.178C265.785 68.2993 266.125 68.5187 266.405 68.836C266.685 69.1533 266.825 69.5593 266.825 70.054C266.825 70.6793 266.578 71.188 266.083 71.58C265.589 71.972 264.898 72.168 264.011 72.168ZM109.417 92.168C108.26 92.168 107.681 91.5847 107.681 90.418V86.512H106.561V85.238H107.681V83.39H109.151V85.238H110.523V86.512H109.151V90.054C109.151 90.2967 109.207 90.4927 109.319 90.642C109.431 90.7913 109.59 90.866 109.795 90.866C110.075 90.866 110.29 90.782 110.439 90.614L110.789 91.734C110.462 92.0233 110.005 92.168 109.417 92.168ZM117.43 91.146C116.795 91.8273 115.955 92.168 114.91 92.168C113.864 92.168 113.024 91.8273 112.39 91.146C111.755 90.4553 111.438 89.6107 111.438 88.612C111.438 87.604 111.755 86.764 112.39 86.092C113.024 85.4107 113.864 85.07 114.91 85.07C115.955 85.07 116.795 85.4107 117.43 86.092C118.064 86.764 118.382 87.604 118.382 88.612C118.382 89.6107 118.064 90.4553 117.43 91.146ZM114.91 90.866C115.516 90.866 115.992 90.6513 116.338 90.222C116.683 89.7833 116.856 89.2467 116.856 88.612C116.856 87.9867 116.683 87.4593 116.338 87.03C115.992 86.5913 115.516 86.372 114.91 86.372C114.312 86.372 113.836 86.5913 113.482 87.03C113.136 87.4593 112.964 87.9867 112.964 88.612C112.964 89.2467 113.136 89.7833 113.482 90.222C113.836 90.6513 114.312 90.866 114.91 90.866ZM125.931 92H124.461V87.772C124.461 87.268 124.339 86.9087 124.097 86.694C123.863 86.4793 123.527 86.372 123.089 86.372C122.743 86.372 122.417 86.4607 122.109 86.638C121.801 86.806 121.549 87.016 121.353 87.268V92H119.883V85.238H121.353V86.148C121.605 85.8493 121.941 85.5973 122.361 85.392C122.79 85.1773 123.252 85.07 123.747 85.07C124.465 85.07 125.007 85.2567 125.371 85.63C125.744 86.0033 125.931 86.54 125.931 87.24V92ZM129.226 84.146C129.048 84.3233 128.834 84.412 128.582 84.412C128.33 84.412 128.115 84.3233 127.938 84.146C127.76 83.9687 127.672 83.754 127.672 83.502C127.672 83.25 127.76 83.0353 127.938 82.858C128.115 82.6807 128.33 82.592 128.582 82.592C128.834 82.592 129.048 82.6807 129.226 82.858C129.403 83.0353 129.492 83.25 129.492 83.502C129.492 83.754 129.403 83.9687 129.226 84.146ZM129.31 92H127.84V85.238H129.31V92ZM133.975 94.744C132.827 94.744 131.879 94.408 131.133 93.736L131.819 92.672C132.332 93.2507 133.051 93.54 133.975 93.54C134.535 93.54 135.006 93.3907 135.389 93.092C135.781 92.7933 135.977 92.3127 135.977 91.65V90.88C135.407 91.636 134.684 92.014 133.807 92.014C132.92 92.014 132.197 91.706 131.637 91.09C131.086 90.474 130.811 89.6247 130.811 88.542C130.811 87.4593 131.086 86.61 131.637 85.994C132.187 85.378 132.911 85.07 133.807 85.07C134.703 85.07 135.426 85.4387 135.977 86.176V85.238H137.447V91.65C137.447 92.2287 137.344 92.728 137.139 93.148C136.943 93.5773 136.667 93.8993 136.313 94.114C135.967 94.338 135.603 94.4967 135.221 94.59C134.838 94.6927 134.423 94.744 133.975 94.744ZM134.241 90.698C134.577 90.698 134.903 90.614 135.221 90.446C135.547 90.2687 135.799 90.054 135.977 89.802V87.268C135.799 87.016 135.547 86.806 135.221 86.638C134.903 86.4607 134.577 86.372 134.241 86.372C133.653 86.372 133.186 86.5727 132.841 86.974C132.495 87.366 132.323 87.8887 132.323 88.542C132.323 89.1953 132.495 89.718 132.841 90.11C133.186 90.502 133.653 90.698 134.241 90.698ZM145.399 92H143.929V87.744C143.929 87.24 143.813 86.8853 143.579 86.68C143.355 86.4747 143.019 86.372 142.571 86.372C142.217 86.372 141.885 86.4607 141.577 86.638C141.269 86.806 141.022 87.016 140.835 87.268V92H139.365V82.662H140.835V86.148C141.087 85.8493 141.423 85.5973 141.843 85.392C142.263 85.1773 142.721 85.07 143.215 85.07C144.671 85.07 145.399 85.784 145.399 87.212V92ZM149.352 92.168C148.195 92.168 147.616 91.5847 147.616 90.418V86.512H146.496V85.238H147.616V83.39H149.086V85.238H150.458V86.512H149.086V90.054C149.086 90.2967 149.142 90.4927 149.254 90.642C149.366 90.7913 149.525 90.866 149.73 90.866C150.01 90.866 150.225 90.782 150.374 90.614L150.724 91.734C150.398 92.0233 149.94 92.168 149.352 92.168ZM161.423 92H159.953V91.104C159.318 91.8133 158.525 92.168 157.573 92.168C156.854 92.168 156.308 91.986 155.935 91.622C155.571 91.2487 155.389 90.7167 155.389 90.026V85.238H156.859V89.48C156.859 89.984 156.975 90.3433 157.209 90.558C157.442 90.7633 157.783 90.866 158.231 90.866C158.576 90.866 158.903 90.782 159.211 90.614C159.519 90.4367 159.766 90.2267 159.953 89.984V85.238H161.423V92ZM169.38 92H167.91V87.772C167.91 87.268 167.789 86.9087 167.546 86.694C167.313 86.4793 166.977 86.372 166.538 86.372C166.193 86.372 165.866 86.4607 165.558 86.638C165.25 86.806 164.998 87.016 164.802 87.268V92H163.332V85.238H164.802V86.148C165.054 85.8493 165.39 85.5973 165.81 85.392C166.239 85.1773 166.701 85.07 167.196 85.07C167.915 85.07 168.456 85.2567 168.82 85.63C169.193 86.0033 169.38 86.54 169.38 87.24V92ZM173.333 92.168C172.176 92.168 171.597 91.5847 171.597 90.418V86.512H170.477V85.238H171.597V83.39H173.067V85.238H174.439V86.512H173.067V90.054C173.067 90.2967 173.123 90.4927 173.235 90.642C173.347 90.7913 173.506 90.866 173.711 90.866C173.991 90.866 174.206 90.782 174.355 90.614L174.705 91.734C174.378 92.0233 173.921 92.168 173.333 92.168ZM177.146 84.146C176.968 84.3233 176.754 84.412 176.502 84.412C176.25 84.412 176.035 84.3233 175.858 84.146C175.68 83.9687 175.592 83.754 175.592 83.502C175.592 83.25 175.68 83.0353 175.858 82.858C176.035 82.6807 176.25 82.592 176.502 82.592C176.754 82.592 176.968 82.6807 177.146 82.858C177.323 83.0353 177.412 83.25 177.412 83.502C177.412 83.754 177.323 83.9687 177.146 84.146ZM177.23 92H175.76V85.238H177.23V92ZM180.607 92H179.137V82.662H180.607V92ZM188.895 92.154C187.812 92.154 186.916 91.8087 186.207 91.118L186.977 89.872C187.5 90.4227 188.139 90.698 188.895 90.698C189.688 90.698 190.295 90.3947 190.715 89.788C191.144 89.1813 191.359 88.458 191.359 87.618C191.359 87.4967 191.354 87.408 191.345 87.352C191.112 87.6973 190.766 88.0007 190.309 88.262C189.852 88.5233 189.362 88.654 188.839 88.654C187.952 88.654 187.21 88.3927 186.613 87.87C186.016 87.338 185.717 86.596 185.717 85.644C185.717 84.7573 186.034 84.0153 186.669 83.418C187.304 82.8113 188.134 82.508 189.161 82.508C189.824 82.508 190.407 82.6387 190.911 82.9C191.415 83.152 191.816 83.502 192.115 83.95C192.414 84.398 192.638 84.9067 192.787 85.476C192.936 86.036 193.011 86.652 193.011 87.324C193.011 88.7333 192.652 89.8907 191.933 90.796C191.214 91.7013 190.202 92.154 188.895 92.154ZM189.287 87.254C189.679 87.254 190.057 87.156 190.421 86.96C190.785 86.7547 191.088 86.484 191.331 86.148C191.275 85.5507 191.079 85.0373 190.743 84.608C190.407 84.1787 189.908 83.964 189.245 83.964C188.666 83.964 188.209 84.132 187.873 84.468C187.537 84.7947 187.369 85.168 187.369 85.588C187.369 86.1293 187.551 86.5447 187.915 86.834C188.279 87.114 188.736 87.254 189.287 87.254Z" fill="#171717"/>
<circle cx="150" cy="24" r="20.5" fill="white" stroke="#E5E5E5" stroke-width="3"/>
<path d="M157.482 22.5C157.489 20.5217 156.711 18.6213 155.32 17.2154C153.928 15.8095 152.035 15.0129 150.057 15.0002C150.038 15.0001 150.019 15 150 15C148.013 15.0026 146.109 15.7942 144.706 17.2007C143.303 18.6073 142.517 20.5135 142.519 22.5C142.519 25.719 141.855 27.5363 141.299 28.494C141.166 28.7217 141.095 28.9805 141.094 29.2443C141.093 29.508 141.162 29.7673 141.293 29.9961C141.424 30.2249 141.613 30.4151 141.841 30.5475C142.07 30.6798 142.329 30.7497 142.592 30.75H146.25C146.25 31.7446 146.645 32.6984 147.348 33.4017C148.052 34.1049 149.006 34.5 150 34.5C150.995 34.5 151.948 34.1049 152.652 33.4017C153.355 32.6984 153.75 31.7446 153.75 30.75H157.408C157.672 30.7497 157.931 30.6798 158.159 30.5475C158.387 30.4152 158.576 30.2251 158.707 29.9963C158.838 29.7676 158.907 29.5083 158.906 29.2446C158.905 28.9809 158.834 28.7221 158.701 28.4943C158.145 27.5366 157.482 25.7192 157.482 22.5ZM150 33C149.404 32.9993 148.832 32.7621 148.41 32.3403C147.988 31.9184 147.751 31.3465 147.75 30.75H152.25C152.249 31.3465 152.012 31.9184 151.59 32.3403C151.168 32.7621 150.597 32.9993 150 33ZM159.083 18.87C158.995 18.9136 158.899 18.9394 158.8 18.9458C158.702 18.9522 158.603 18.9392 158.51 18.9075C158.417 18.8758 158.331 18.826 158.257 18.761C158.183 18.696 158.122 18.617 158.079 18.5286C157.342 17.0338 156.206 15.7721 154.797 14.8831C154.713 14.8306 154.641 14.7622 154.584 14.6817C154.527 14.6013 154.486 14.5104 154.464 14.4142C154.443 14.3181 154.44 14.2186 154.457 14.1214C154.473 14.0242 154.509 13.9313 154.562 13.8479C154.614 13.7645 154.683 13.6923 154.763 13.6355C154.844 13.5786 154.935 13.5382 155.031 13.5165C155.127 13.4949 155.227 13.4924 155.324 13.5093C155.421 13.5261 155.514 13.562 155.597 13.6147C157.241 14.6513 158.566 16.1227 159.425 17.8658C159.468 17.9542 159.494 18.0502 159.5 18.1485C159.507 18.2468 159.493 18.3454 159.462 18.4386C159.43 18.5319 159.38 18.618 159.315 18.692C159.25 18.766 159.171 18.8265 159.083 18.87ZM141.248 18.9474C141.12 18.9472 140.995 18.9146 140.884 18.8527C140.773 18.7907 140.679 18.7014 140.612 18.5932C140.544 18.485 140.506 18.3614 140.499 18.2341C140.493 18.1069 140.519 17.9801 140.576 17.8658C141.435 16.1227 142.759 14.6513 144.403 13.6147C144.486 13.5621 144.579 13.5263 144.676 13.5095C144.773 13.4928 144.873 13.4953 144.969 13.517C145.065 13.5387 145.156 13.5791 145.236 13.6359C145.317 13.6928 145.385 13.7649 145.438 13.8483C145.491 13.9316 145.526 14.0245 145.543 14.1216C145.56 14.2187 145.557 14.3182 145.535 14.4143C145.513 14.5104 145.473 14.6012 145.416 14.6817C145.359 14.7621 145.287 14.8306 145.204 14.8831C143.794 15.7721 142.658 17.0338 141.921 18.5286C141.859 18.6544 141.763 18.7603 141.644 18.8343C141.525 18.9083 141.388 18.9475 141.248 18.9474Z" fill="#0F766E"/>
</g>
<circle cx="150" cy="131" r="4" fill="#D4D4D4"/>
<g filter="url(#filter1_dd_1447_1623)">
<path d="M149.999 120C147.083 120.003 144.287 121.163 142.225 123.225C140.163 125.287 139.003 128.083 138.999 131C138.999 140.412 148.999 147.521 149.425 147.819C149.593 147.937 149.794 148 149.999 148C150.205 148 150.405 147.937 150.573 147.819C150.999 147.521 160.999 140.412 160.999 131C160.996 128.083 159.836 125.287 157.774 123.225C155.711 121.163 152.916 120.003 149.999 120ZM150 127C150.791 127 151.564 127.235 152.222 127.674C152.88 128.114 153.393 128.738 153.696 129.469C153.998 130.2 154.077 131.004 153.923 131.78C153.769 132.556 153.388 133.269 152.828 133.828C152.269 134.388 151.556 134.769 150.78 134.923C150.004 135.077 149.2 134.998 148.469 134.696C147.738 134.393 147.114 133.88 146.674 133.222C146.235 132.564 146 131.791 146 131C146 130.475 146.103 129.955 146.304 129.469C146.505 128.984 146.8 128.543 147.172 128.172C147.543 127.8 147.984 127.505 148.469 127.304C148.955 127.103 149.475 127 150 127Z" fill="#0F766E"/>
<path d="M150 119.5L149.999 119.5C146.95 119.503 144.027 120.716 141.871 122.872C139.716 125.028 138.503 127.95 138.499 130.999V131C138.499 135.88 141.088 140.124 143.672 143.152C146.264 146.188 148.908 148.068 149.138 148.229L149.139 148.229C149.391 148.405 149.691 148.5 149.999 148.5C150.307 148.5 150.607 148.405 150.86 148.229L150.86 148.229C151.09 148.068 153.735 146.188 156.326 143.152C158.911 140.124 161.499 135.88 161.499 131V130.999C161.496 127.95 160.283 125.028 158.127 122.872C155.971 120.716 153.049 119.503 150 119.5ZM150 127.5C150.692 127.5 151.369 127.705 151.944 128.09C152.52 128.474 152.969 129.021 153.234 129.661C153.498 130.3 153.568 131.004 153.433 131.683C153.298 132.362 152.964 132.985 152.475 133.475C151.985 133.964 151.362 134.298 150.683 134.433C150.004 134.568 149.3 134.498 148.661 134.234C148.021 133.969 147.474 133.52 147.09 132.944C146.705 132.369 146.5 131.692 146.5 131C146.5 130.54 146.591 130.085 146.766 129.661C146.942 129.236 147.2 128.85 147.525 128.525C147.85 128.2 148.236 127.942 148.661 127.766C149.085 127.591 149.54 127.5 150 127.5Z" stroke="white"/>
</g>
<defs>
<filter id="filter0_dd_1447_1623" x="0" y="0" width="300" height="125" filterUnits="userSpaceOnUse" color-interpolation-filters="sRGB">
<feFlood flood-opacity="0" result="BackgroundImageFix"/>
<feColorMatrix in="SourceAlpha" type="matrix" values="0 0 0 0 0 0 0 0 0 0 0 0 0 0 0 0 0 0 127 0" result="hardAlpha"/>
<feOffset dy="4"/>
<feGaussianBlur stdDeviation="3"/>
<feColorMatrix type="matrix" values="0 0 0 0 0 0 0 0 0 0 0 0 0 0 0 0 0 0 0.1 0"/>
<feBlend mode="normal" in2="BackgroundImageFix" result="effect1_dropShadow_1447_1623"/>
<feColorMatrix in="SourceAlpha" type="matrix" values="0 0 0 0 0 0 0 0 0 0 0 0 0 0 0 0 0 0 127 0" result="hardAlpha"/>
<feOffset dy="2"/>
<feGaussianBlur stdDeviation="2"/>
<feColorMatrix type="matrix" values="0 0 0 0 0 0 0 0 0 0 0 0 0 0 0 0 0 0 0.06 0"/>
<feBlend mode="normal" in2="effect1_dropShadow_1447_1623" result="effect2_dropShadow_1447_1623"/>
<feBlend mode="normal" in="SourceGraphic" in2="effect2_dropShadow_1447_1623" result="shape"/>
</filter>
<filter id="filter1_dd_1447_1623" x="134.999" y="117" width="30" height="36" filterUnits="userSpaceOnUse" color-interpolation-filters="sRGB">
<feFlood flood-opacity="0" result="BackgroundImageFix"/>
<feColorMatrix in="SourceAlpha" type="matrix" values="0 0 0 0 0 0 0 0 0 0 0 0 0 0 0 0 0 0 127 0" result="hardAlpha"/>
<feOffset dy="1"/>
<feGaussianBlur stdDeviation="1.5"/>
<feColorMatrix type="matrix" values="0 0 0 0 0 0 0 0 0 0 0 0 0 0 0 0 0 0 0.1 0"/>
<feBlend mode="normal" in2="BackgroundImageFix" result="effect1_dropShadow_1447_1623"/>
<feColorMatrix in="SourceAlpha" type="matrix" values="0 0 0 0 0 0 0 0 0 0 0 0 0 0 0 0 0 0 127 0" result="hardAlpha"/>
<feOffset dy="1"/>
<feGaussianBlur stdDeviation="1"/>
<feColorMatrix type="matrix" values="0 0 0 0 0 0 0 0 0 0 0 0 0 0 0 0 0 0 0.06 0"/>
<feBlend mode="normal" in2="effect1_dropShadow_1447_1623" result="effect2_dropShadow_1447_1623"/>
<feBlend mode="normal" in="SourceGraphic" in2="effect2_dropShadow_1447_1623" result="shape"/>
</filter>
</defs>
</svg>
