<svg width="45" height="45" viewBox="0 0 24 24" fill="none" xmlns="http://www.w3.org/2000/svg">
<path d="M16.8571 0H6.57143C5.88968 0.000779828 5.23608 0.271948 4.75402 0.754015C4.27195 1.23608 4.00078 1.88968 4 2.57143V21.4286C4.00078 22.1103 4.27195 22.7639 4.75402 23.246C5.23608 23.7281 5.88968 23.9992 6.57143 24H16.8571C17.5389 23.9992 18.1925 23.7281 18.6746 23.246C19.1566 22.7639 19.4278 22.1103 19.4286 21.4286V2.57143C19.4278 1.88968 19.1566 1.23608 18.6746 0.754015C18.1925 0.271948 17.5389 0.000779828 16.8571 0ZM6.57143 1.71429H16.8571C17.0844 1.71455 17.3023 1.80493 17.4629 1.96562C17.6236 2.12631 17.714 2.34418 17.7143 2.57143V3.42857H5.71429V2.57143C5.71455 2.34418 5.80493 2.12631 5.96562 1.96562C6.12631 1.80493 6.34418 1.71455 6.57143 1.71429ZM16.8571 22.2857H6.57143C6.34418 22.2855 6.12631 22.1951 5.96562 22.0344C5.80493 21.8737 5.71455 21.6558 5.71429 21.4286V20.5714H17.7143V21.4286C17.714 21.6558 17.6236 21.8737 17.4629 22.0344C17.3023 22.1951 17.0844 22.2855 16.8571 22.2857Z" fill="#000000"/>
</svg>
