<svg width="16" height="14" viewBox="0 0 16 14" fill="none" xmlns="http://www.w3.org/2000/svg">
<path d="M14.0001 2.63629H11.2724V2.09083C11.2719 1.657 11.0994 1.24108 10.7926 0.934307C10.4859 0.627537 10.07 0.454971 9.63612 0.454468H6.36352C5.92969 0.454971 5.51377 0.627537 5.20701 0.934307C4.90026 1.24108 4.72771 1.657 4.72722 2.09083V2.63629H2.00058C1.71136 2.63662 1.43408 2.75167 1.22958 2.95618C1.02507 3.16069 0.910037 3.43797 0.909712 3.7272V9.17119C0.909644 9.17475 0.90918 9.17818 0.90918 9.18174C0.90918 9.1853 0.909646 9.18873 0.909712 9.19229V12.4545C0.910037 12.7437 1.02507 13.021 1.22958 13.2255C1.43408 13.43 1.71136 13.545 2.00058 13.5454H14.0001C14.2894 13.545 14.5666 13.43 14.7711 13.2255C14.9756 13.021 15.0907 12.7437 15.091 12.4545V3.7272C15.0907 3.43797 14.9756 3.16069 14.7711 2.95618C14.5666 2.75167 14.2894 2.63662 14.0001 2.63629ZM5.81809 2.09083C5.81825 1.94622 5.87577 1.80758 5.97802 1.70532C6.08027 1.60307 6.21891 1.54554 6.36352 1.54538H9.63612C9.78074 1.54554 9.91937 1.60307 10.0216 1.70532C10.1239 1.80758 10.1814 1.94622 10.1816 2.09083V2.63629H5.81809V2.09083ZM14.0001 3.7272L14.0005 8.63629H2.00058V3.7272H14.0001Z" fill="#0F766E"/>
</svg>
