<svg width="40" height="40" viewBox="0 0 40 40" fill="none" xmlns="http://www.w3.org/2000/svg">
<rect width="40" height="40" rx="6" fill="#9CA3AF"/>
<path fill-rule="evenodd" clip-rule="evenodd" d="M20 18.5C21.1935 18.5 22.3381 18.0259 23.182 17.182C24.0259 16.3381 24.5 15.1935 24.5 14C24.5 12.8065 24.0259 11.6619 23.182 10.818C22.3381 9.97411 21.1935 9.5 20 9.5C18.8065 9.5 17.6619 9.97411 16.818 10.818C15.9741 11.6619 15.5 12.8065 15.5 14C15.5 15.1935 15.9741 16.3381 16.818 17.182C17.6619 18.0259 18.8065 18.5 20 18.5ZM9.5 32C9.5 30.6211 9.77159 29.2557 10.2993 27.9818C10.8269 26.7079 11.6004 25.5504 12.5754 24.5754C13.5504 23.6004 14.7079 22.8269 15.9818 22.2993C17.2557 21.7716 18.6211 21.5 20 21.5C21.3789 21.5 22.7443 21.7716 24.0182 22.2993C25.2921 22.8269 26.4496 23.6004 27.4246 24.5754C28.3996 25.5504 29.1731 26.7079 29.7007 27.9818C30.2284 29.2557 30.5 30.6211 30.5 32H9.5Z" fill="white"/>
</svg>
