<svg width="100" height="70" xmlns="http://www.w3.org/2000/svg"
 xmlns:xlink="http://www.w3.org/1999/xlink" version="1.0" x="0px" y="0px" viewBox="0 0 90 90" enable-background="new 0 0 100 90" xml:space="preserve">


<path d="M50,13.333c-7.363,0-13.333,5.97-13.333,13.333c0,3.744,1.556,7.119,4.043,9.541L30.212,54.576l5.794,3.298l10.511-18.392  C47.634,39.785,48.786,40,50,40c7.363,0,13.333-5.971,13.333-13.334S57.363,13.333,50,13.333z M50,33.333  c-3.682,0-6.667-2.985-6.667-6.667S46.318,20,50,20s6.667,2.984,6.667,6.666S53.682,33.333,50,33.333z" fill="#000000"/>
<path d="M36.194,70c-1.487-5.739-6.656-10-12.861-10C15.97,60,10,65.97,10,73.333s5.97,13.334,13.333,13.334  c6.205,0,11.374-4.262,12.861-10h20.771V70H36.194z M23.333,80c-3.682,0-6.666-2.985-6.666-6.667s2.984-6.666,6.666-6.666  S30,69.651,30,73.333S27.015,80,23.333,80z" fill="#000000"/>
<path d="M76.667,60c-1.215,0-2.367,0.215-3.483,0.518L62.673,42.125l-5.795,3.298l10.498,18.369  c-2.486,2.422-4.043,5.795-4.043,9.541c0,7.363,5.971,13.334,13.334,13.334S90,80.696,90,73.333S84.03,60,76.667,60z M76.667,80  C72.985,80,70,77.015,70,73.333s2.985-6.666,6.667-6.666s6.666,2.984,6.666,6.666S80.349,80,76.667,80z" fill="#000000"/></svg>