<svg width="60" height="60" viewBox="0 0 60 60" fill="none" xmlns="http://www.w3.org/2000/svg">
<path d="M57.5 27.5C56.12 27.5 55 28.62 55 30C55 43.785 43.785 55.0001 30 55.0001C16.215 55.0001 5 43.785 5 30C5 16.215 16.215 5.00005 30 5.00005C34.57 5.00005 39.135 6.28005 43.075 8.50255L39.845 11.7325C39.13 12.4475 38.915 13.5225 39.3025 14.4575C39.6875 15.39 40.6 16 41.6125 16H52.6125C53.9925 16 55.1125 14.88 55.1125 13.5V2.50005C55.1125 1.49005 54.5025 0.577547 53.57 0.190047C52.6325 -0.197453 51.56 0.015047 50.845 0.732547L46.7375 4.84005C41.8125 1.75255 35.9825 4.69484e-05 30 4.69484e-05C13.4575 4.69484e-05 0 13.4575 0 30C0 46.5425 13.4575 60.0001 30 60.0001C46.5425 60.0001 60 46.5425 60 30C60 28.62 58.88 27.5 57.5 27.5Z" fill="#000000"/>
</svg>
