<svg width="60" height="60" viewBox="0 0 60 60" fill="none" xmlns="http://www.w3.org/2000/svg">
<g clip-path="url(#clip0_1522:3772)">
<path d="M57.5 27.5C56.12 27.5 55 28.62 55 30C55 43.785 43.785 55.0001 30 55.0001C16.215 55.0001 5 43.785 5 30C5 16.215 16.215 5.00005 30 5.00005C34.57 5.00005 39.135 6.28005 43.075 8.50255L39.845 11.7325C39.13 12.4475 38.915 13.5225 39.3025 14.4575C39.6875 15.39 40.6 16 41.6125 16H52.6125C53.9925 16 55.1125 14.88 55.1125 13.5V2.50005C55.1125 1.49005 54.5025 0.577547 53.57 0.190047C52.6325 -0.197453 51.56 0.015047 50.845 0.732547L46.7375 4.84005C41.8125 1.75255 35.9825 4.69484e-05 30 4.69484e-05C13.4575 4.69484e-05 0 13.4575 0 30C0 46.5425 13.4575 60.0001 30 60.0001C46.5425 60.0001 60 46.5425 60 30C60 28.62 58.88 27.5 57.5 27.5Z" fill="#A3A3A3"/>
<path d="M30 8.75C18.265 8.75 8.75 18.265 8.75 30C8.75 41.735 18.265 51.25 30 51.25C41.735 51.25 51.25 41.735 51.25 30C51.25 26.125 50.195 22.5025 48.385 19.375H41.2175C38.2875 19.375 35.905 16.9925 35.905 14.0625C35.905 12.525 36.57 11.15 37.6175 10.18C35.2475 9.27 32.6875 8.75 30 8.75Z" fill="#0F766E"/>
<path d="M23.4114 39C23.1851 39 23 38.8251 23 38.6112V21.3888C23 21.1749 23.1851 21 23.4114 21C23.6376 21 23.8227 21.1749 23.8227 21.3888V38.6117C23.8227 38.8251 23.6376 39 23.4114 39Z" fill="white"/>
<path d="M25.5087 39H24.8966C24.6672 39 24.4795 38.8226 24.4795 38.6057V21.3943C24.4795 21.1774 24.6672 21 24.8966 21H25.5087C25.7381 21 25.9257 21.1774 25.9257 21.3943V38.6057C25.9257 38.8226 25.7381 39 25.5087 39Z" fill="white"/>
<path d="M31.6743 27.101C30.6843 27.101 29.7474 27.4159 28.9111 27.7944V21.3943C28.9111 21.1774 28.7234 21 28.494 21H27.004C26.7746 21 26.5869 21.1774 26.5869 21.3943V38.6057C26.5869 38.8226 26.7746 39 27.004 39H28.494C28.7234 39 28.9111 38.8226 28.9111 38.6057V38.2568C29.7474 38.6723 30.6843 39 31.6743 39C35.2013 39 38.061 36.2476 38.061 32.9138C38.061 29.5799 35.2019 27.101 31.6743 27.101Z" fill="white"/>
</g>
<defs>
<clipPath id="clip0_1522:3772">
<rect width="60" height="60" fill="white"/>
</clipPath>
</defs>
</svg>
