<svg width="209" height="80" viewBox="0 0 209 80" fill="none" xmlns="http://www.w3.org/2000/svg">
<g clip-path="url(#clip0)">
<path d="M146.902 80C145.956 80 145.181 79.2224 145.181 78.2719V1.72813C145.181 0.77755 145.956 0 146.902 0C147.849 0 148.623 0.77755 148.623 1.72813V78.2741C148.623 79.2225 147.849 80 146.902 80Z" fill="#0F766E"/>
<path d="M155.678 80H153.118C152.158 80 151.373 79.2115 151.373 78.2478V1.75222C151.373 0.788501 152.158 0 153.118 0H155.678C156.637 0 157.423 0.788501 157.423 1.75222V78.2478C157.423 79.2115 156.637 80 155.678 80Z" fill="#0F766E"/>
<path d="M181.466 27.1157C177.325 27.1157 173.406 28.5153 169.908 30.1974V1.75222C169.908 0.788501 169.123 0 168.163 0H161.93C160.971 0 160.186 0.788501 160.186 1.75222V78.2478C160.186 79.2115 160.971 80 161.93 80H168.163C169.123 80 169.908 79.2115 169.908 78.2478V76.6971C173.406 78.5435 177.325 80 181.466 80C196.22 80 208.182 67.7673 208.182 52.95C208.182 38.1328 196.222 27.1157 181.466 27.1157Z" fill="#0F766E"/>
<path d="M107.66 18.5823H99.486V33.7478H95.0022V1.07324H99.486V15.1414H107.66V1.07324H112.347V33.7478H107.577L107.66 18.5823Z" fill="#171717"/>
<path d="M129.599 4.5076V1.07324H116.804V33.7478H129.599V30.2806H121.53V18.5254H127.346V15.0954H121.602V4.5076H129.599Z" fill="#171717"/>
<path d="M76.4584 1.07324H92.5967V5.16468H86.8546V33.7478H82.2748V5.16468H76.4584V1.07324Z" fill="#171717"/>
<path d="M11.7984 61.2928C14.9519 60.6072 17.0477 58.2155 17.0477 53.7495C17.0477 49.5879 13.6521 45.9937 8.23489 45.9937H0V78.7384H9.5434C12.577 78.7384 17.4839 76.2349 17.4839 69.6684C17.4839 66.0917 16.9408 62.296 11.7984 61.2928ZM4.90691 49.5354H8.17165C11.0504 49.5354 12.8147 51.7169 12.8147 54.6782C12.8147 58.0972 10.1628 59.8209 8.17165 59.8209H4.90691V49.5354ZM12.8125 69.7013C12.8125 72.6626 11.118 75.0631 8.16947 75.0631H4.90691V63.6824H8.17165C11.8464 63.6824 12.8125 66.74 12.8125 69.7013Z" fill="#171717"/>
<path d="M30.364 45.7725H25.6468L18.6681 78.9552H23.6033L25.4134 70.768H30.5908L32.5361 78.9552H37.4714L30.364 45.7725ZM25.8649 66.9722L28.0697 53.2151L30.1459 66.9722H25.8649Z" fill="#171717"/>
<path d="M52.2466 62.3901C55.6684 60.616 56.122 57.5365 56.122 54.2861C56.122 49.7347 53.1451 45.7725 48.1335 45.825H39.7525V78.9552H44.7249V63.5357H47.9242L52.504 78.9552H57.3018L52.2466 62.3901ZM51.3786 54.7702C51.3786 57.7095 49.6863 59.8757 46.2951 59.8757H44.6529V49.6646H46.2951C49.8521 49.6646 51.3786 51.8286 51.3786 54.7702Z" fill="#171717"/>
<path d="M129.429 49.6099V47.1633H118.224V78.8961H129.429V76.3532H121.275V63.6605H127.115V61.3279H121.329V49.6099H129.429Z" fill="#171717"/>
<path d="M106.788 47.0669H98.6333V78.8391H106.788C110.929 78.8391 113.851 75.2471 113.851 71.0877V54.8161C113.851 50.6568 110.931 47.0669 106.788 47.0669ZM110.683 71.5827C110.683 74.1235 108.851 76.4013 106.321 76.4013H101.571V49.6098H106.321C108.851 49.6098 110.683 51.8877 110.683 54.4285V71.5827Z" fill="#171717"/>
<path d="M74.729 67.9381V71.8872C74.729 74.5703 73.0651 79.3758 67.8136 79.3758H67.0852C60.7127 79.3758 59.6594 73.9132 59.6594 71.2301V54.492C59.6594 49.7588 62.8478 46.9114 67.0088 46.9114H67.7285C72.4108 46.9114 74.729 50.5385 74.729 54.273V57.7818H72.0139V54.0539C72.0139 51.6819 70.0991 49.1017 67.7372 49.1017H67.2684C64.117 48.9243 62.3374 51.7673 62.3374 54.492V70.7921C62.3374 73.4752 63.4998 76.9643 67.1746 76.9643C69.8461 76.9643 72.0117 74.5703 72.0117 71.8872V67.9381H74.729Z" fill="#171717"/>
<path d="M86.667 46.6946H85.9473C81.7841 46.6946 78.1617 49.7588 78.1617 54.4942V71.2323C78.1617 73.9154 79.4331 79.378 85.8056 79.378H86.534C91.7855 79.378 94.1037 74.5725 94.1037 71.8894V67.9403V57.5671V54.0583C94.1037 50.3217 91.3515 46.6946 86.667 46.6946ZM91.1705 57.565V67.9381V71.8872C91.1705 74.5703 88.5687 76.9643 85.8972 76.9643C82.2224 76.9643 81.06 73.4752 81.06 70.7921V54.492C81.06 51.7695 83.0577 48.9265 86.209 49.1017H86.6779C89.0398 49.1017 91.1726 51.4628 91.1726 53.8349V57.565H91.1705Z" fill="#171717"/>
</g>
<defs>
<clipPath id="clip0">
<rect width="208.182" height="80" fill="white"/>
</clipPath>
</defs>
</svg>
