<svg width="51" height="64" viewBox="0 0 51 64" fill="none" xmlns="http://www.w3.org/2000/svg">
<path d="M1.37654 64C0.619354 64 0 63.378 0 62.6175V1.38251C0 0.62204 0.619354 0 1.37654 0C2.13374 0 2.7531 0.62204 2.7531 1.38251V62.6192C2.7531 63.378 2.13374 64 1.37654 64Z" fill="#0F766E"/>
<path d="M8.39719 64H6.34893C5.58127 64 4.95319 63.3692 4.95319 62.5982V1.40178C4.95319 0.630801 5.58127 0 6.34893 0H8.39719C9.16485 0 9.79293 0.630801 9.79293 1.40178V62.5982C9.79293 63.3692 9.16485 64 8.39719 64Z" fill="#0F766E"/>
<path d="M29.028 21.6925C25.7149 21.6925 22.5797 22.8122 19.7812 24.1579V1.40178C19.7812 0.630801 19.1531 0 18.3855 0H13.3992C12.6315 0 12.0034 0.630801 12.0034 1.40178V62.5982C12.0034 63.3692 12.6315 64 13.3992 64H18.3855C19.1531 64 19.7812 63.3692 19.7812 62.5982V61.3577C22.5797 62.8348 25.7149 64 29.028 64C40.8308 64 50.4004 54.2138 50.4004 42.36C50.4004 30.5062 40.8325 21.6925 29.028 21.6925Z" fill="#0F766E"/>
</svg>
