<svg width="31" height="48" viewBox="0 0 31 48" fill="none" xmlns="http://www.w3.org/2000/svg">
<path d="M25.7143 0H5.14286C3.77937 0.00155966 2.47217 0.543896 1.50803 1.50803C0.543896 2.47217 0.00155966 3.77937 0 5.14286V42.8571C0.00155966 44.2206 0.543896 45.5278 1.50803 46.492C2.47217 47.4561 3.77937 47.9984 5.14286 48H25.7143C27.0778 47.9984 28.385 47.4561 29.3491 46.492C30.3132 45.5278 30.8556 44.2206 30.8571 42.8571V5.14286C30.8556 3.77937 30.3132 2.47217 29.3491 1.50803C28.385 0.543896 27.0778 0.00155966 25.7143 0ZM5.14286 3.42857H25.7143C26.1688 3.42909 26.6045 3.60987 26.9259 3.93125C27.2473 4.25263 27.4281 4.68836 27.4286 5.14286V6.85714H3.42857V5.14286C3.42909 4.68836 3.60987 4.25263 3.93125 3.93125C4.25263 3.60987 4.68836 3.42909 5.14286 3.42857ZM25.7143 44.5714H5.14286C4.68836 44.5709 4.25263 44.3901 3.93125 44.0688C3.60987 43.7474 3.42909 43.3116 3.42857 42.8571V41.1429H27.4286V42.8571C27.4281 43.3116 27.2473 43.7474 26.9259 44.0688C26.6045 44.3901 26.1688 44.5709 25.7143 44.5714Z" fill="#0F766E"/>
</svg>
